<svg width="1830" height="1066" viewBox="0 0 1830 1066" fill="none" xmlns="http://www.w3.org/2000/svg">
<g clip-path="url(#clip0_1952_1471)">
<path d="M8.00211 -121.712C77.7384 -83.8276 143.079 -77.5135 212.578 -120.485C266.751 -154.16 311.658 -210.461 363.574 -249.924C404.323 -280.793 436.28 -280.793 478.692 -257.466C510.768 -239.751 540.469 -215.021 568.031 -185.029C610.918 -138.199 648.34 -82.0737 697.405 -48.223C777.239 7.02548 870.498 9.30558 956.867 4.3946C1101.57 -3.67344 1241.75 -45.4167 1375.05 -129.254C1460.82 -183.275 1543.98 -255.01 1636.88 -279.039C1695.93 -294.298 1754.73 -279.039 1812.59 -305.523C1866.76 -330.429 1929.73 -383.924 1982.48 -324.641C1989.01 -165.034 2017.76 -14.0215 1991.86 146.111C1977.25 236.789 1942.08 313.085 1918.56 398.501C1895.51 482.514 1881.26 570.736 1865.22 657.906C1855.6 710.173 1835.76 771.911 1865.58 816.811C1881.61 841.015 1901.1 860.133 1917.49 883.811C1954.44 937.13 1983.07 1000.27 2009.44 1065.52C1773.74 1055.34 1538.52 1033.07 1303.88 997.64C1063.31 961.51 823.097 906.436 581.336 891.002C313.44 873.813 51.8397 930.29 -206.434 1034.47C-206.553 925.905 -216.532 794.887 -184.574 692.984C-154.399 596.869 -87.7516 574.244 -37.2611 509.875C30.3367 423.582 -54.3685 344.48 -94.5232 279.409C-121.848 235.211 -153.33 173.473 -121.253 120.153C-96.3053 78.7609 -57.9325 53.8552 -27.9946 21.0569C-12.0753 3.51764 5.8637 -16.3017 13.7046 -44.0136C22.6147 -76.1104 18.6942 -89.4402 8.00211 -121.712Z" stroke="white" stroke-miterlimit="10"/>
<path d="M-206.674 998.34C-56.628 940.461 91.6358 891.351 246.315 870.655C357.75 855.747 469.661 851.362 581.453 856.273C820.599 866.621 1059.15 921.869 1296.64 959.754C1528.53 996.762 1761.39 1019.91 1994.59 1029.56" stroke="white" stroke-miterlimit="10"/>
<path d="M-206.674 964.313C-123.394 933.795 -40.7087 898.892 43.6401 874.863C110.525 855.746 178.717 847.853 246.552 840.136C356.919 827.508 467.522 822.246 578.126 824.877C815.135 830.314 1052.97 884.159 1288.08 923.798C1518.08 962.559 1749.27 987.816 1980.69 997.462" stroke="white" stroke-miterlimit="10"/>
<path d="M-206.674 932.568C-121.969 903.102 -38.4515 865.217 47.0853 841.013C114.446 821.896 183.35 817.686 251.661 811.547C360.245 801.725 468.948 796.288 577.77 796.99C810.739 798.568 1045.85 849.081 1276.68 889.772C1505.84 930.288 1736.2 958.877 1967.03 969.4" stroke="white" stroke-miterlimit="10"/>
<path d="M-206.434 902.575C-119.946 874.162 -35.4788 833.12 51.6024 808.565C117.656 789.974 185.254 789.623 252.257 785.238C361.317 778.223 470.376 772.785 579.554 772.084C808.484 770.505 1040.38 816.283 1267.06 857.675C1495.15 899.418 1724.44 932.743 1954.2 944.319" stroke="white" stroke-miterlimit="10"/>
<path d="M-205.957 874.337C-119.945 847.853 -36.6655 805.408 49.4653 779.977C118.726 759.456 189.888 763.139 260.218 760.508C369.516 756.474 478.694 751.739 587.991 749.985C813.594 746.301 1042.88 786.817 1266.11 829.086C1490.4 871.706 1715.77 909.416 1941.97 922.57" stroke="white" stroke-miterlimit="10"/>
<path d="M-205.246 847.853C-117.096 822.421 -32.3905 776.82 55.6411 751.037C123.952 730.867 193.807 738.409 263.187 738.058C373.196 737.532 483.206 733.498 593.216 730.692C817.156 725.079 1044.9 759.105 1266.58 802.602C1486.96 845.749 1708.16 888.719 1930.44 903.628" stroke="white" stroke-miterlimit="10"/>
<path d="M-204.176 822.947C-113.649 798.743 -27.3997 749.633 62.7703 723.325C132.269 703.154 203.193 715.081 273.523 716.835C382.345 719.641 491.286 716.835 600.108 713.327C820.127 706.312 1043.35 732.269 1261.12 775.942C1479.83 819.79 1698.78 869.426 1919.51 886.965" stroke="white" stroke-miterlimit="10"/>
<path d="M-202.75 799.445C-110.204 776.468 -22.7663 724.202 69.0669 697.542C139.635 677.021 211.153 693.158 282.434 697.367C391.374 703.856 500.434 702.278 609.374 698.244C826.187 690.351 1045.37 707.715 1260.17 751.563C1476.03 795.762 1691.42 852.413 1909.18 872.408" stroke="white" stroke-miterlimit="10"/>
<path d="M-200.85 777.521C-105.69 755.773 -16.4703 699.823 77.739 672.637C149.732 651.941 222.32 672.813 294.789 679.478C402.779 689.299 510.888 689.299 618.878 685.09C831.888 676.671 1046.21 684.389 1257.43 727.886C1471.39 772.084 1683.93 836.804 1899.79 859.956" stroke="white" stroke-miterlimit="10"/>
<path d="M-198.473 756.826C-100.581 736.305 -9.57892 676.321 87.244 648.96C158.762 628.79 229.924 653.169 301.561 662.29C410.739 676.145 520.155 677.899 629.69 673.339C841.393 664.394 1052.86 662.29 1263.02 706.839C1472.58 751.213 1679.77 822.773 1891 848.906" stroke="white" stroke-miterlimit="10"/>
<path d="M-195.504 737.357C-94.7606 718.239 -1.97691 654.045 97.4596 626.509C170.522 606.339 242.753 635.805 315.578 647.205C425.469 664.394 535.717 667.901 646.083 662.99C852.559 653.695 1057.25 641.943 1262.54 685.441C1470.21 729.289 1673.83 809.793 1882.92 839.259" stroke="white" stroke-miterlimit="10"/>
<path d="M-191.822 718.941C-91.4353 701.752 0.754325 637.384 99.2405 607.742C175.511 584.766 247.979 617.389 323.656 631.946C434.854 653.344 546.764 658.957 658.675 653.52C863.963 643.873 1065.69 621.423 1270.26 665.797C1473.53 709.82 1671.34 797.516 1875.79 830.314" stroke="white" stroke-miterlimit="10"/>
<path d="M-187.426 701.577C-84.4252 685.792 9.78407 617.214 110.765 587.397C188.58 564.245 262.355 601.955 339.22 618.968C449.467 643.347 560.665 650.713 672.1 645.276C763.34 640.892 854.341 627.036 945.58 621.774C1054.88 615.46 1164.06 622.3 1272.28 645.627C1473.53 689.124 1667.53 785.765 1869.5 822.247" stroke="white" stroke-miterlimit="10"/>
<path d="M-182.318 685.09C-77.2982 670.883 18.2179 598.797 120.862 568.279C200.34 544.601 274.353 586.695 352.405 606.164C463.009 634.051 574.92 643.171 686.949 637.208C777.119 632.472 866.814 615.109 956.865 607.391C1064.26 598.271 1171.78 603.182 1278.22 626.334C1476.38 669.48 1665.39 774.364 1863.91 814.178" stroke="white" stroke-miterlimit="10"/>
<path d="M-176.375 669.305C-68.7412 656.501 28.4381 579.855 133.458 549.513C214.481 526.185 289.682 573.015 368.803 594.939C478.457 625.282 589.655 635.981 701.09 629.666C790.904 624.58 880.005 603.533 969.462 593.36C1073.89 581.609 1178.31 584.591 1282.03 606.866C1478.29 649.135 1663.02 762.964 1858.93 806.636" stroke="white" stroke-miterlimit="10"/>
<path d="M-169.604 654.396C-59.4749 643.171 39.13 561.439 146.526 531.622C226.955 509.347 300.374 558.282 378.307 582.31C489.386 616.512 602.366 629.315 715.583 622.475C805.041 617.038 893.666 592.132 982.767 579.679C1086.48 565.122 1190.43 566.35 1293.55 589.151C1485.53 631.771 1663.74 752.09 1855 798.919" stroke="white" stroke-miterlimit="10"/>
<path d="M-161.766 639.838C-52.9438 630.718 44.8295 550.038 150.206 516.889C195.232 502.682 232.416 505.664 276.135 525.308C315.577 543.198 355.376 558.807 395.53 572.137C507.322 608.794 621.134 622.825 735.42 614.407C821.432 608.093 906.613 580.731 992.031 565.999C1094.44 548.284 1197.32 547.056 1299.49 569.331C1489.81 610.899 1663.38 739.636 1852.15 790.149" stroke="white" stroke-miterlimit="10"/>
<path d="M-152.973 625.983C-42.844 618.616 55.7609 534.428 162.207 500.753C207.945 486.195 245.011 489.879 289.324 511.276C329.122 530.394 369.396 547.407 410.145 561.614C522.174 600.902 636.579 616.161 751.46 606.339C836.878 598.972 921.108 568.805 1005.69 551.617C1106.68 531.096 1208.25 527.939 1309.23 550.038C1496.94 591.08 1664.92 727.008 1850.25 780.678" stroke="white" stroke-miterlimit="10"/>
<path d="M-143.111 612.478C-31.2007 606.865 68.5922 518.117 176.582 484.442C224.103 469.709 259.506 475.847 305.006 498.824C342.904 517.941 381.158 535.13 420.006 549.687C533.342 592.132 649.411 609.145 766.192 597.745C851.729 589.326 935.721 556.177 1020.31 536.533C1121.05 513.206 1222.27 508.47 1323.25 531.271C1507.04 572.488 1668.49 714.029 1849.3 770.33" stroke="white" stroke-miterlimit="10"/>
<path d="M-132.066 599.323C-18.7302 595.639 82.0132 502.156 191.429 468.481C240.494 453.397 274.946 462.693 320.922 486.897C359.295 507.067 398.143 525.132 437.466 540.391C549.614 583.888 664.851 601.427 780.564 588.098C866.457 578.276 950.33 542.496 1035.04 520.397C1133.4 494.789 1232.48 488.3 1331.44 510.224C1513.92 550.564 1670.62 698.945 1849.18 758.228" stroke="white" stroke-miterlimit="10"/>
<path d="M-119.826 586.345C-5.30189 584.766 96.1543 486.196 206.639 453.047C251.309 439.542 285.998 447.084 327.816 470.411C369.516 493.563 412.046 514.259 455.052 531.447C566.013 575.646 680.181 593.185 794.824 577.575C881.192 565.824 965.184 527.764 1050.13 503.384C1148.49 475.146 1247.81 466.903 1347.13 490.055C1425.54 508.295 1500.15 542.672 1572.85 588.976C1664.21 647.206 1752.95 710.347 1850.25 744.548" stroke="white" stroke-miterlimit="10"/>
<path d="M-106.402 573.365C8.2407 573.891 109.697 471.638 219.944 438.138C307.025 411.654 386.86 487.248 469.308 520.923C580.268 566.349 694.792 583.889 809.435 565.297C895.804 551.266 979.321 511.803 1064.14 485.143C1161.8 454.449 1260.4 444.803 1359.48 467.779C1437.06 485.845 1510.84 520.923 1582.24 568.805C1670.98 628.438 1756.87 693.508 1852.15 728.587" stroke="white" stroke-miterlimit="10"/>
<path d="M-91.5527 560.387C23.5655 563.194 125.022 455.854 235.626 422.88C319.618 397.799 399.096 474.27 478.336 508.121C592.029 556.529 709.761 574.243 827.374 550.741C912.792 533.552 995.121 493.388 1078.88 465.15C1174.87 432.877 1271.93 421.302 1369.58 443.752C1446.92 461.466 1520.34 496.72 1590.91 546.181C1677.75 607.041 1761.39 674.392 1855.12 710.523" stroke="white" stroke-miterlimit="10"/>
<path d="M-71.002 543.549C42.6907 550.214 143.434 439.191 252.731 407.795C298.707 394.641 329.477 409.725 372.007 434.455C412.162 457.782 452.911 478.654 494.491 496.018C606.877 543.023 723.421 560.562 839.252 535.13C925.739 516.188 1008.9 475.497 1093.84 445.856C1190.55 412.005 1288.44 399.552 1387.04 422.178C1461.77 439.366 1532.22 473.567 1600.17 522.326C1685.35 583.538 1767.09 651.941 1858.92 690.001" stroke="white" stroke-miterlimit="10"/>
<path d="M-46.7656 520.572C60.393 532.323 160.424 426.562 262.83 394.641C307.737 380.609 339.219 393.062 380.918 416.214C421.667 438.84 463.01 459.185 504.947 476.373C617.095 522.151 733.282 542.145 849.113 518.818C936.076 501.454 1019.83 461.64 1105.13 432.525C1200.76 399.727 1297.71 385.345 1395.48 404.638C1473.18 419.897 1544.34 454.274 1614.67 504.787C1696.52 563.543 1775.88 627.912 1862.96 668.603" stroke="white" stroke-miterlimit="10"/>
<path d="M-29.1836 498.649C19.4061 506.366 65.8573 482.688 111.239 459.536C166.482 431.298 220.893 396.22 278.392 378.505C322.468 365 353.237 377.277 394.461 399.026C434.972 420.424 475.959 440.068 517.539 456.73C629.331 501.63 745.162 524.08 860.755 503.033C948.193 487.073 1032.9 448.662 1118.79 420.599C1214.31 389.379 1311.13 374.822 1408.79 392.361C1485.53 406.217 1554.67 438.84 1624.41 487.423C1704.72 543.198 1782.89 604.234 1867 647.03" stroke="white" stroke-miterlimit="10"/>
<path d="M-17.4219 477.777C31.1678 487.423 78.4506 463.745 124.07 440.944C180.501 412.882 236.337 378.154 294.906 360.79C339.1 347.811 369.395 360.79 411.094 381.837C451.486 402.183 492.235 420.95 533.459 437.261C645.013 481.285 760.607 506.19 875.962 486.546C962.687 471.813 1047.15 435.858 1132.57 409.9C1229.04 380.434 1326.57 366.754 1424.94 383.767C1498.72 396.57 1564.41 426.913 1632.13 471.287C1711.61 523.378 1789.31 580.556 1871.04 625.106" stroke="white" stroke-miterlimit="10"/>
<path d="M-11.125 457.783C37.7022 469.008 86.0543 445.33 132.268 423.231C190.48 395.519 247.98 360.967 308.094 343.252C388.284 319.749 469.307 385.521 546.171 415.864C656.894 459.537 771.774 488.301 886.536 471.463C973.617 458.66 1058.92 425.16 1144.81 401.307C1241.28 374.296 1338.57 361.493 1436.59 377.629C1592.57 403.411 1730.38 520.924 1874.96 603.358" stroke="white" stroke-miterlimit="10"/>
<path d="M-9.58008 438.314C40.1976 450.943 90.094 427.089 137.377 405.516C197.965 377.804 257.722 343.252 320.093 325.011C364.762 311.857 396.363 321.679 439.013 341.674C478.692 360.09 518.491 377.804 558.646 393.765C668.418 437.437 782.229 470.236 896.397 456.555C983.835 446.207 1069.97 415.338 1156.33 393.765C1252.68 369.736 1349.86 358.16 1447.4 373.595C1598.39 397.624 1739.05 499 1878.88 581.259" stroke="white" stroke-miterlimit="10"/>
<path d="M-12.0742 419.198C38.6539 432.878 90.2135 409.201 138.684 387.978C201.768 360.442 264.02 326.065 328.647 306.596C351.576 299.756 376.405 292.565 399.809 297.301C416.917 300.808 433.668 311.332 450.062 318.698C489.148 336.238 528.471 353.426 567.913 369.387C676.259 413.235 788.408 450.768 901.506 441.823C990.37 434.808 1078.4 406.394 1166.31 387.277C1261.71 366.405 1357.82 356.408 1454.05 370.79C1601.48 392.889 1746.3 477.253 1882.92 558.985" stroke="white" stroke-miterlimit="10"/>
<path d="M-18.1348 400.256C34.0189 414.638 87.3606 391.135 137.495 370.264C203.548 342.727 268.651 308.526 335.892 287.479C382.581 272.921 416.083 275.377 460.871 294.67C501.976 312.56 543.082 330.275 584.306 347.288C690.514 390.785 800.167 431.826 911.246 426.214C1001.42 421.654 1090.99 396.222 1180.45 379.91C1275.37 362.722 1370.89 355.005 1466.28 369.562C1532.46 379.735 1595.54 402.887 1659.69 427.968C1736.8 458.311 1813.18 491.46 1887.08 536.009" stroke="white" stroke-miterlimit="10"/>
<path d="M-27.043 381.489C26.8927 396.572 82.2541 373.07 134.17 352.374C207.589 323.083 280.058 285.199 354.784 263.976C400.879 250.822 435.331 255.558 480 274.149C517.541 289.934 555.082 306.07 592.624 321.68C699.069 366.405 808.723 413.235 920.396 410.779C1010.21 408.85 1099.9 387.277 1189.24 374.122C1285.23 360.091 1381.7 354.478 1477.93 369.562C1542.32 379.559 1604.81 401.308 1668.13 420.776C1744.16 444.279 1819.6 469.886 1891.71 513.383" stroke="white" stroke-miterlimit="10"/>
<path d="M-38.2109 362.547C17.6256 378.157 75.0065 354.83 129.061 334.309C206.044 304.843 281.958 267.309 360.01 243.982C405.986 230.302 444.597 231.003 489.622 249.244C526.57 264.152 563.398 279.762 600.226 295.547C707.029 341.325 816.326 393.767 928.593 394.819C1018.17 395.696 1107.98 377.806 1197.08 367.984C1292.24 357.461 1387.64 353.953 1482.68 368.51C1547.55 378.508 1611.34 398.678 1675.85 413.235C1750.93 430.073 1825.54 447.963 1896.23 490.583" stroke="white" stroke-miterlimit="10"/>
<path d="M-51.043 343.252C11.684 360.616 78.2127 332.728 138.801 309.576C213.765 280.987 287.897 246.083 363.692 223.282C410.856 209.075 451.842 205.567 498.175 223.633C537.023 238.717 575.633 255.028 614.125 272.042C717.363 317.293 822.264 372.543 930.848 378.506C1021.73 383.417 1113.56 368.333 1204.33 361.668C1300.56 354.477 1396.91 353.249 1492.78 368.333C1556.57 378.331 1619.42 396.396 1683.22 405.341C1757.47 415.69 1831.36 426.038 1900.98 467.782" stroke="white" stroke-miterlimit="10"/>
<path d="M-64.8223 323.435C-0.55087 341.149 67.641 313.964 130.012 290.987C207.945 262.398 284.928 228.022 363.456 203.291C415.609 186.805 460.279 180.666 511.957 199.959C547.36 213.113 582.525 227.846 617.452 243.456C722.473 290.286 828.324 352.374 938.928 361.495C1028.98 368.861 1120.34 357.636 1210.51 354.128C1306.97 350.27 1403.56 351.147 1499.55 366.055C1562.04 375.877 1623.1 392.013 1685.95 395.521C1760.91 399.73 1836.23 402.01 1906.8 444.104" stroke="white" stroke-miterlimit="10"/>
<path d="M-79.0781 303.086C-12.6683 321.502 57.4243 294.141 121.815 271.515C202.837 243.102 282.909 208.199 364.288 182.241C416.798 165.404 465.506 155.231 518.254 173.823C555.439 186.977 592.267 202.411 628.858 218.898C732.215 266.078 835.69 332.025 944.631 343.776C1034.68 353.423 1126.16 345.881 1216.33 345.355C1311.96 344.828 1407.72 347.635 1502.88 362.192C1566.79 372.014 1628.45 386.747 1692.96 385.344C1767.09 383.765 1842.29 378.854 1912.38 420.597" stroke="white" stroke-miterlimit="10"/>
<path d="M-93.0977 281.688C-25.6186 300.631 45.7809 273.971 111.478 251.697C200.103 221.705 287.422 183.996 376.523 156.81C429.033 140.85 476.554 131.379 528.945 149.269C565.179 161.546 600.938 176.279 636.46 192.59C738.272 239.77 838.659 308.699 945.818 324.484C1038.25 338.164 1132.93 332.727 1225.71 335.182C1320.16 337.638 1414.61 342.549 1508.58 356.58C1573.92 366.402 1635.7 379.205 1701.51 373.067C1772.44 366.577 1852.03 351.494 1918.68 396.92" stroke="white" stroke-miterlimit="10"/>
<path d="M-106.285 259.413C-37.3805 279.408 35.0882 252.924 102.567 230.825C193.806 201.009 283.858 163.125 375.453 135.062C428.676 118.751 478.691 106.123 532.271 122.961C568.03 134.185 603.433 148.217 638.36 164.528C741.361 212.409 841.629 286.599 949.857 305.365C1042.4 321.326 1137.44 318.87 1230.35 323.781C1325.98 328.867 1421.5 335.532 1516.66 349.388C1579.62 358.508 1638.55 369.558 1701.87 360.087C1773.74 349.563 1857.26 325.36 1925.33 373.592" stroke="white" stroke-miterlimit="10"/>
<path d="M-118.045 235.913C-48.9027 256.96 24.0412 230.826 91.9954 209.779C190.6 179.261 287.542 137.342 386.385 108.753C438.301 93.6688 487.128 82.7945 539.282 98.0537C574.209 108.226 608.661 121.732 642.639 137.517C745.996 185.75 845.551 264.326 954.135 284.496C1046.32 301.685 1141.01 302.211 1233.79 309.402C1329.9 316.769 1425.89 325.012 1521.65 337.991C1586.16 346.761 1645.8 355.706 1710.42 343.078C1780.99 329.222 1865.81 299.405 1932.94 349.392" stroke="white" stroke-miterlimit="10"/>
<path d="M-127.668 210.833C-58.2881 233.283 15.3686 207.501 83.6792 187.155C184.066 157.163 282.79 115.771 383.296 86.3049C435.568 71.0458 485.94 57.8914 538.806 71.5719C573.496 80.5169 607.592 93.3205 641.213 108.58C744.807 155.935 843.056 237.668 951.165 261.346C1046.56 282.217 1145.4 283.971 1241.63 293.267C1337.39 302.563 1433.14 311.859 1528.78 323.61C1593.28 331.503 1652.69 338.518 1717.19 323.435C1787.17 307.123 1874.25 272.396 1940.78 325.364" stroke="white" stroke-miterlimit="10"/>
<path d="M-134.678 184.348C-66.4859 208.728 6.93319 183.471 74.531 164.178C175.631 135.239 274.948 95.0741 375.811 64.7313C428.321 48.7707 480.593 33.687 534.172 45.2629C570.644 53.1555 606.641 65.6083 641.806 81.5689C746.47 128.749 844.362 213.99 953.54 238.544C1048.94 259.942 1147.54 263.625 1243.77 274.324C1340.12 285.023 1436.59 294.845 1533.05 305.018C1598.99 311.858 1660.29 317.12 1725.87 300.458C1795.13 282.743 1884.11 245.034 1949.57 301.51" stroke="white" stroke-miterlimit="10"/>
<path d="M-137.053 156.286C-63.0396 185.05 18.5767 156.637 91.9958 134.538C185.374 106.3 277.444 70.1689 370.703 41.0539C426.065 23.6901 480.476 9.1326 536.906 21.7608C570.289 29.3026 603.197 40.7031 635.511 55.6114C742.194 104.721 840.681 193.82 952.948 215.042C1147.07 251.524 1345.11 258.013 1540.3 277.131C1605.76 283.445 1664.8 287.128 1729.67 267.309C1803.21 244.859 1895.28 198.205 1967.03 253.102" stroke="white" stroke-miterlimit="10"/>
<path d="M-127.432 128.574C-52.7058 159.443 27.3662 134.362 101.736 110.859C191.193 82.6212 279.106 45.2627 368.325 15.4462C423.33 -2.96998 476.672 -17.5275 532.627 -3.49616C567.436 5.27343 601.532 18.954 634.677 36.3178C742.311 92.6185 839.609 182.068 955.797 196.45C1152.17 220.83 1349.62 215.568 1546.36 232.23C1575.46 234.686 1604.81 240.298 1633.79 241.175C1670.86 242.228 1708.28 226.793 1743.92 213.113C1818.41 184.173 1910.48 129.275 1986.4 177.157" stroke="white" stroke-miterlimit="10"/>
<path d="M-107.592 101.037C-32.8659 133.66 45.3052 111.385 119.794 86.3038C204.618 57.715 287.541 18.778 372.008 -11.9156C425.588 -31.3841 476.553 -45.4154 531.083 -29.4547C565.535 -19.4574 599.156 -4.02295 631.826 15.0947C742.905 80.3405 839.491 170.667 962.331 181.191C1161.44 198.204 1360.2 167.861 1559.31 176.28C1588.18 177.508 1617.28 182.769 1646.03 182.945C1683.57 183.12 1721.47 165.405 1757.11 149.796C1830.65 117.524 1921.41 57.1888 1997.92 101.738" stroke="white" stroke-miterlimit="10"/>
<path d="M-81.2188 73.5007C-7.32448 107.527 68.1142 88.2336 141.771 61.2233C221.13 32.1082 298.351 -8.58264 377.235 -40.5039C428.913 -61.3756 476.909 -74.7053 529.538 -56.8154C563.99 -45.2395 597.373 -28.0511 629.568 -6.82873C680.653 26.6711 728.292 70.3436 779.495 103.493C840.44 142.956 905.187 163.477 971.596 167.335C1174.27 179.262 1373.03 115.946 1574.87 111.912C1603.5 111.385 1632.25 115.069 1660.88 114.718C1698.07 114.016 1735.13 96.3016 1770.3 79.8148C1841.1 46.315 1928.78 -16.2999 2003.38 27.7234" stroke="white" stroke-miterlimit="10"/>
<path d="M-52.1094 45.2615C93.4219 115.944 247.507 -9.81153 384.841 -71.7248C434.262 -93.9996 478.694 -105.049 528.947 -85.23C561.498 -72.4264 592.862 -54.7118 623.156 -32.9632C675.904 4.92138 724.375 54.5572 778.073 89.6356C841.631 131.203 909.942 149.62 979.203 152.426C1093.37 157.161 1208.37 134.536 1320.4 104.368C1411.16 79.989 1501.45 49.8217 1593.76 41.5783C1620.73 39.1228 1647.58 40.1751 1674.55 39.8243C1710.9 39.2982 1746.42 23.1621 1780.75 6.49991C1848 -26.2983 1932.23 -90.1409 2003.15 -44.1883" stroke="white" stroke-miterlimit="10"/>
<path d="M-23.7168 15.9731C119.795 88.7609 257.723 -38.0478 390.661 -104.346C435.212 -126.621 473.941 -137.144 519.561 -118.027C554.726 -103.294 588.465 -82.2466 620.66 -56.6393C671.151 -16.1237 717.483 35.0908 769.875 70.5201C837.354 116.122 911.01 133.31 984.786 135.415C1104.77 138.923 1225.36 105.599 1341.07 61.0489C1429.34 27.0228 1516.66 -15.0714 1607.66 -30.3305C1636.41 -35.2415 1664.92 -35.5923 1693.79 -36.82C1729.19 -38.3985 1763.29 -53.3069 1796.67 -69.9691C1857.26 -100.312 1936.62 -161.173 1999.94 -112.239" stroke="white" stroke-miterlimit="10"/>
<path d="M0.0410156 -15.0733C141.296 59.1174 263.186 -64.8845 391.134 -137.672C433.784 -161.876 469.068 -170.646 513.024 -150.826C548.189 -134.866 581.81 -112.065 613.411 -84.5284C663.07 -41.2067 708.096 13.1647 760.725 49.2954C831.886 98.4051 910.889 113.313 988.704 114.19C1114.16 115.769 1239.37 74.0256 1357.94 15.971C1445.02 -26.6492 1530.44 -80.319 1621.56 -101.541C1684.28 -116.099 1744.4 -110.837 1805.46 -141.18C1862.13 -169.418 1936.26 -227.473 1994.36 -175.206" stroke="white" stroke-miterlimit="10"/>
<path d="M15.7266 -48.0456C81.6612 -12.6164 142.012 -14.3703 208.303 -47.344C271.268 -78.5638 326.867 -133.812 387.455 -172.925C428.323 -199.234 461.112 -206.249 503.405 -185.553C538.451 -168.54 571.478 -144.511 602.604 -115.221C651.075 -69.4434 694.556 -12.9671 746.947 23.339C821.555 75.0797 905.547 86.831 986.926 86.3049C1118.32 85.2525 1248.17 38.7736 1370.3 -31.2079C1456.55 -80.6685 1540.66 -143.81 1632.37 -169.242C1693.08 -186.079 1753.19 -178.011 1812.59 -207.126C1866.17 -233.435 1935.32 -287.982 1988.89 -232.909" stroke="white" stroke-miterlimit="10"/>
<path d="M19.6445 -83.3004C89.262 -45.4158 154.365 -44.7142 223.388 -86.8082C277.324 -119.606 324.488 -170.47 376.523 -208.53C418.46 -239.224 451.487 -242.731 495.324 -219.229C527.163 -202.041 557.101 -179.24 585.138 -151.177C633.371 -102.769 675.664 -42.9603 729.244 -6.65423C807.058 46.1387 895.803 53.3297 980.151 50.3481C1116.54 45.4371 1249.59 -0.866309 1375.17 -78.7402C1462.25 -132.761 1546.6 -203.619 1640.21 -229.928C1698.07 -246.064 1756.04 -235.014 1812.71 -261.849C1866.53 -287.106 1931.39 -340.425 1984.26 -282.896" stroke="white" stroke-miterlimit="10"/>
<path d="M1958.36 -344.283C1964.54 -186.43 1984.5 -31.3839 1960.38 125.767C1946.48 216.27 1914.05 294.319 1889.22 378.332C1864.39 462.695 1845.38 550.391 1824.59 637.035C1812.35 688.249 1786.22 754.898 1810.45 806.288C1823.04 832.948 1840.86 855.047 1855.36 879.427C1888.74 935.552 1916.18 997.816 1941.61 1062.19" stroke="white" stroke-miterlimit="10"/>
<path d="M1934.01 -352C1938.99 -193.095 1950.28 -33.6634 1925.33 123.137C1911.43 210.307 1881.97 288.181 1857.02 368.861C1831.96 449.717 1809.03 531.801 1785.39 613.533C1770.54 664.923 1739.29 734.554 1756.52 792.082C1765.31 821.373 1781.58 846.805 1794.41 872.237C1824.59 931.695 1851.2 993.959 1876.03 1058.68" stroke="white" stroke-miterlimit="10"/>
<path d="M1909.18 -350.245C1912.27 -192.568 1914.52 -32.6115 1889.46 121.908C1875.44 208.552 1848.23 288.355 1822.1 368.158C1797.86 441.997 1771.96 514.609 1747.13 588.098C1729.19 641.067 1694.39 711.048 1703.89 774.013C1708.88 807.162 1723.85 837.154 1735.97 865.217C1762.7 927.305 1788.36 989.92 1812.47 1054.29" stroke="white" stroke-miterlimit="10"/>
<path d="M1883.63 -341.478C1884.58 -182.748 1877.93 -20.3353 1850.96 133.834C1836.83 214.69 1813.3 293.265 1787.4 367.631C1764.12 434.631 1735.13 496.544 1709.59 561.614C1687.73 617.214 1649.95 688.072 1653.04 756.299C1654.7 791.904 1667.18 825.053 1678.23 855.922C1701.63 920.992 1727.05 984.659 1750.58 1049.73" stroke="white" stroke-miterlimit="10"/>
<path d="M1857.26 -328.673C1855.48 -95.4023 1830.05 162.248 1752.6 369.21C1730.38 428.493 1698.54 478.304 1673 534.429C1646.74 592.309 1606.47 664.921 1603.86 737.708C1602.43 775.418 1612.29 811.899 1622.51 845.925C1642.82 913.802 1667.89 978.872 1691.06 1044.64" stroke="white" stroke-miterlimit="10"/>
<path d="M1829.7 -314.116C1826.49 -150.826 1802.61 16.4975 1770.89 172.596C1757.59 238.017 1742.38 310.279 1718.5 369.736C1697.24 422.705 1661.95 459.537 1636.65 507.945C1605.52 567.578 1562.16 644.224 1555.15 721.747C1551.7 759.983 1558.59 798.043 1567.39 833.647C1584.85 904.505 1609.8 971.856 1632.96 1039.03" stroke="white" stroke-miterlimit="10"/>
<path d="M1800.83 -300.437C1796.55 -135.568 1764.6 32.4566 1731.45 189.081C1718.98 248.188 1707.45 320.449 1683.93 373.242C1663.5 419.019 1625.24 441.645 1600.65 482.511C1564.66 542.32 1519.04 623.526 1507.51 704.031C1491.47 815.229 1544.82 939.406 1576.77 1033.07" stroke="white" stroke-miterlimit="10"/>
<path d="M1770.53 -290.437C1766.38 -125.745 1727.41 41.0522 1694.03 196.975C1684.76 240.121 1675.49 283.267 1665.87 326.063C1661.95 343.602 1657.56 362.369 1649.6 377.101C1640.21 394.465 1627.97 401.305 1614.67 409.724C1595.9 421.826 1579.5 437.436 1564.77 458.834C1524.62 517.414 1477.1 603.005 1461.06 684.562C1438.37 800.496 1488.26 927.303 1521.88 1026.75" stroke="white" stroke-miterlimit="10"/>
<path d="M1738.69 -286.579C1736.08 -119.781 1690.22 48.2444 1656.6 205.922C1647.93 246.613 1640.92 287.83 1632.72 328.696C1629.52 344.657 1625.6 363.95 1617.64 376.578C1607.89 392.012 1595.42 393.065 1582.23 397.625C1561.92 404.465 1544.69 417.97 1529.01 438.316C1501.92 473.57 1479.35 519.522 1457.61 561.792C1440.5 595.116 1424.23 630.37 1414.96 670.184C1387.16 788.749 1433.97 917.311 1469.02 1020.62" stroke="white" stroke-miterlimit="10"/>
<path d="M1705.79 -287.983C1705.79 -114.871 1654.23 57.3634 1620.13 221.004C1611.46 262.747 1608.73 336.938 1585.68 369.21C1574.51 384.82 1560.5 383.592 1546.24 386.574C1525.09 390.783 1506.92 402.71 1490.17 422.354C1461.77 455.327 1439.08 501.982 1417.1 544.076C1398.45 579.68 1380.39 617.214 1369.7 659.834C1339.88 779.1 1382.77 908.013 1417.46 1013.95" stroke="white" stroke-miterlimit="10"/>
<path d="M1674.55 -286.053C1676.45 -113.993 1623.7 56.1366 1589.01 217.848C1580.22 259.065 1577.13 332.554 1552.77 363.072C1540.78 378.156 1525.21 375.876 1510.48 377.981C1488.74 381.138 1469.61 391.486 1451.67 410.077C1421.86 441.122 1399.52 488.828 1377.19 530.747C1357.94 567.053 1339.05 604.937 1327.17 647.908C1294.03 767.701 1333.35 897.842 1367.21 1006.94" stroke="white" stroke-miterlimit="10"/>
<path d="M1644.73 -280.967C1648.05 -112.941 1595.07 53.3301 1559.43 209.955C1549.8 252.225 1546.48 329.222 1519.39 358.687C1506.56 372.719 1490.17 369.562 1475.08 371.316C1453.22 373.947 1433.38 383.067 1414.73 400.606C1384.08 429.546 1362.34 477.252 1339.76 518.645C1320.04 554.776 1300.32 592.134 1287.14 634.579C1249.36 755.073 1285.12 886.617 1318.38 999.92" stroke="white" stroke-miterlimit="10"/>
<path d="M1616.1 -272.898C1620.37 -107.153 1566.08 54.9089 1529.13 207.851C1519.04 249.945 1515.23 325.363 1487.55 353.777C1474.13 367.633 1457.02 364.651 1441.46 366.405C1419.12 368.86 1398.57 377.279 1379.33 394.292C1347.84 422.004 1326.22 469.886 1303.17 510.928C1282.86 547.058 1262.31 584.242 1247.81 626.336C1206.71 745.953 1238.78 877.146 1271.1 992.729" stroke="white" stroke-miterlimit="10"/>
<path d="M1588.29 -262.199C1593.04 -99.2605 1537.68 57.5395 1499.19 206.447C1488.38 248.365 1483.99 321.854 1456.19 349.917C1442.29 363.948 1424.7 361.493 1408.78 363.422C1386.21 366.053 1365.07 374.121 1345.23 390.608C1313.15 417.267 1291.65 464.974 1268 505.665C1247.1 541.62 1225.71 578.101 1209.91 619.669C1165.36 737.532 1193.75 868.023 1225 985.185" stroke="white" stroke-miterlimit="10"/>
<path d="M1561.09 -249.045C1566.32 -89.2629 1509.53 61.3988 1469.26 205.396C1457.62 246.964 1452.51 318.523 1425.18 346.586C1411.05 361.144 1393.11 359.565 1376.71 362.021C1353.9 365.353 1332.4 373.246 1312.08 389.557C1279.65 415.515 1258.15 462.696 1233.91 502.86C1212.41 538.465 1190.08 574.07 1173.09 614.936C1124.97 730.344 1149.92 859.607 1179.98 978.172" stroke="white" stroke-miterlimit="10"/>
<path d="M1534 -233.962C1539.47 -77.6876 1481.49 66.1338 1439.44 204.518C1426.84 245.911 1421.14 315.015 1394.41 343.779C1380.27 359.038 1362.1 358.688 1345.35 361.845C1322.42 366.054 1300.68 374.298 1280.13 390.434C1247.57 416.041 1225.95 462.52 1201.12 501.808C1179.03 536.886 1155.86 571.438 1137.56 611.252C1086 723.678 1107.39 851.188 1136.26 970.806" stroke="white" stroke-miterlimit="10"/>
<path d="M1507.03 -217.3C1512.85 -64.3582 1453.45 71.395 1409.73 203.991C1396.19 245.033 1389.89 311.682 1364 341.498C1349.98 357.634 1331.68 358.862 1314.69 363.071C1291.65 368.509 1269.79 377.103 1249 393.239C1216.45 418.495 1194.7 464.272 1169.28 502.508C1146.47 536.885 1122.47 570.209 1102.99 608.971C1047.99 717.889 1065.81 843.119 1093.37 963.613" stroke="white" stroke-miterlimit="10"/>
<path d="M1479.59 -199.233C1485.89 -49.975 1425.42 77.3594 1379.8 203.817C1365.07 244.683 1358.65 308.701 1333.71 339.745C1319.92 356.934 1301.63 360.091 1284.52 365.353C1261.59 372.368 1239.61 381.664 1218.82 397.976C1186.51 423.407 1164.53 467.957 1138.4 505.14C1114.99 538.64 1090.16 570.736 1069.37 607.92C1011.04 712.628 1025.18 835.227 1051.67 956.598" stroke="white" stroke-miterlimit="10"/>
<path d="M1451.67 -180.116C1458.56 -34.5411 1397.14 83.8483 1349.86 203.641C1333.82 244.332 1327.53 305.543 1303.76 338.166C1275.13 377.454 1223.57 376.577 1189.36 403.938C1157.4 429.545 1135.07 473.042 1108.46 508.822C1084.34 541.27 1058.68 571.788 1036.7 607.568C975.042 707.892 985.616 827.334 1010.8 949.231" stroke="white" stroke-miterlimit="10"/>
<path d="M1422.69 -160.472C1430.41 -18.5799 1368.27 90.3385 1319.45 203.466C1306.97 232.406 1298.54 260.469 1290.82 292.565C1286.9 308.877 1281.91 324.487 1273.59 336.94C1246.03 379.209 1194.23 383.068 1160.13 411.306C1128.65 437.264 1105.96 479.533 1078.87 514.085C1054.16 545.48 1027.67 574.42 1004.51 608.446C939.64 703.859 946.53 819.969 970.647 942.392" stroke="white" stroke-miterlimit="10"/>
<path d="M1392.63 -140.479C1401.42 -2.09471 1339.05 97.0016 1288.92 203.464C1275.85 231.352 1267.29 257.66 1260.17 289.582C1256.48 306.419 1251.61 322.555 1243.77 336.236C1217.28 381.662 1165.84 390.783 1131.62 420.073C1100.73 446.557 1077.69 487.423 1050.01 520.397C1024.58 550.74 997.377 577.926 973.142 610.198C905.307 700.349 908.514 812.775 931.562 935.9" stroke="white" stroke-miterlimit="10"/>
<path d="M1360.91 -120.483C1371.25 16.3227 1307.45 105.071 1256.01 206.448C1242.23 233.458 1235.22 257.136 1228.68 288.882C1225.48 304.667 1221.32 320.277 1214.55 333.607C1189.6 383.769 1137.92 398.151 1103.23 429.371C1072.7 456.732 1048.82 496.897 1020.43 528.643C994.053 558.109 965.778 583.891 940.236 614.76C870.856 698.773 871.331 808.042 892.953 929.414" stroke="white" stroke-miterlimit="10"/>
<path d="M1327.53 -100.839C1339.76 32.8099 1276.56 110.859 1224.53 205.746C1210.15 231.879 1203.62 253.628 1197.8 285.725C1194.83 302.212 1190.91 318.523 1184.61 332.73C1160.97 386.4 1110.36 406.219 1075.31 439.192C1045.49 467.255 1021.38 505.841 992.389 536.184C965.421 564.422 936.434 588.451 909.822 617.39C837.829 695.966 834.621 801.201 855.174 923.449" stroke="white" stroke-miterlimit="10"/>
<path d="M1292 -81.8972C1306.62 48.945 1244.84 115.945 1192.33 205.044C1177.48 230.3 1171.66 250.646 1166.67 282.742C1163.94 299.931 1160.37 316.768 1154.43 332.203C1132.1 389.556 1082.91 414.461 1047.39 449.715C1018.29 478.655 993.814 515.662 964.47 544.427C936.789 571.437 907.208 593.536 879.527 620.722C854.817 644.926 832.007 673.866 819.058 714.031C798.505 778.224 807.296 851.538 817.87 917.836" stroke="white" stroke-miterlimit="10"/>
<path d="M1253.99 -63.8323C1271.57 64.3788 1211.81 120.329 1159.42 203.99C1135.3 242.577 1138.99 286.951 1123.9 331.325C1103.11 392.185 1055.35 422.528 1019.35 460.062C990.96 489.703 966.368 525.307 936.549 552.493C908.274 578.276 877.98 598.621 849.468 623.877C824.044 646.327 799.928 673.162 785.79 712.45C763.456 774.363 771.297 846.975 781.157 912.396" stroke="white" stroke-miterlimit="10"/>
<path d="M1213.36 -47.344C1223.1 10.8861 1220.84 59.2942 1194.59 107.176C1174.63 143.482 1147.78 169.089 1125.8 202.589C1101.33 239.948 1106.68 285.549 1093.13 330.45C1073.77 394.818 1027.67 430.248 991.201 470.588C963.52 501.106 938.81 535.307 908.753 560.914C879.884 585.469 848.996 604.236 819.652 627.388C793.635 648.084 768.33 672.99 752.767 711.225C728.65 770.858 735.66 842.769 744.807 907.489" stroke="white" stroke-miterlimit="10"/>
<path d="M1169.76 -32.262C1180.92 22.6356 1182.59 70.1668 1156.45 116.119C1137.68 149.268 1111.78 170.491 1091.35 200.834C1067.23 236.613 1073.88 285.022 1062.12 329.396C1044.18 397.097 999.871 437.437 962.805 480.583C935.837 511.978 911.126 544.601 880.713 568.805C851.25 592.308 819.768 609.321 789.711 630.719C763.1 649.836 736.607 672.813 719.975 709.996C694.314 767.524 700.373 838.733 708.927 902.751" stroke="white" stroke-miterlimit="10"/>
<path d="M1122.83 -19.4568C1135.07 30.7053 1141.84 78.2364 1117.01 122.435C1100.14 152.427 1075.67 169.265 1057.25 196.626C1033.14 232.23 1041.1 285.55 1030.05 330.625C1013.18 400.08 971.121 444.63 934.056 489.881C908.157 521.452 883.803 552.671 853.627 575.297C824.046 597.396 792.563 613.006 762.15 632.299C733.757 650.364 704.769 672.288 686.474 710.524C659.981 765.948 665.327 835.754 673.406 898.544" stroke="white" stroke-miterlimit="10"/>
<path d="M1072.34 -8.75903C1085.41 36.1411 1097.88 84.8998 1075.07 127.871C1060.58 155.232 1037.65 167.86 1021.85 192.59C999.04 228.194 1008.19 281.689 998.922 326.589C983.596 400.428 942.966 450.239 904.831 498.998C880.002 530.744 856.123 560.56 826.185 581.958C795.059 604.057 761.795 618.439 729.718 637.031C701.206 653.693 671.862 674.038 653.092 711.221C626.005 764.715 630.638 833.293 638.123 895.206" stroke="white" stroke-miterlimit="10"/>
<path d="M1010.68 0.0109863C1024.82 39.6497 1043.95 88.7596 1025.41 132.608C1014.84 157.513 994.525 167.511 982.527 189.961C964.35 223.812 974.329 283.094 966.726 324.663C952.708 401.134 913.503 455.505 874.893 506.895C850.657 539.168 826.897 567.756 796.84 587.927C765.239 609.149 731.619 622.304 699.186 639.843C670.198 655.453 640.142 674.571 620.421 711.052C592.265 762.968 596.066 830.845 603.076 892.408" stroke="white" stroke-miterlimit="10"/>
<path d="M925.146 5.97388C941.185 39.2985 968.034 86.3036 960.43 131.555C956.866 152.953 943.561 165.581 938.809 185.751C933.7 206.974 940.709 234.335 940.353 256.961C939.997 278.358 938.452 299.581 935.007 320.277C921.82 399.73 882.972 458.311 844.124 513.034C792.921 584.945 732.689 607.219 667.823 641.421C638.717 656.855 608.542 675.973 588.346 711.929C559.952 762.442 562.091 828.74 568.149 889.952" stroke="white" stroke-miterlimit="10"/>
<path d="M853.987 3.69312C872.995 36.316 901.745 77.8838 904.359 124.187C905.428 142.779 898.418 158.739 898.775 176.805C899.25 201.36 908.517 220.653 908.398 246.786C908.398 268.885 906.853 291.16 903.527 312.733C890.934 395.518 851.848 459.01 812.406 517.415C762.985 590.378 699.545 608.97 635.749 642.47C606.405 657.904 576.349 677.197 555.796 712.977C527.403 762.613 527.878 827.333 533.105 888.369" stroke="white" stroke-miterlimit="10"/>
<path d="M795.178 -5.77856C817.156 27.8966 845.431 65.255 855.886 111.208C859.806 128.396 858.024 146.812 861.707 164.001C863.964 174.699 869.31 182.592 872.28 192.414C876.557 206.095 876.795 218.021 876.913 233.807C877.151 256.958 875.607 279.935 872.399 302.56C859.806 389.028 820.364 457.431 780.091 519.87C732.451 593.535 666.041 609.32 603.314 642.82C573.971 658.43 543.914 678.249 523.124 714.029C494.73 762.963 493.899 826.455 498.294 887.491" stroke="white" stroke-miterlimit="10"/>
<path d="M746.709 -21.2102C770.707 12.9912 798.387 48.7711 813.475 93.8468C819.296 111.211 821.078 130.679 826.9 148.043C836.523 176.807 844.957 184.173 845.433 218.375C845.789 242.404 844.245 266.432 840.918 289.935C827.969 380.437 787.814 453.575 746.471 520.049C700.258 594.239 631.591 608.095 569.933 641.946C540.47 658.082 510.651 678.778 489.861 714.558C461.586 763.317 459.567 825.932 463.131 886.968" stroke="white" stroke-miterlimit="10"/>
<path d="M706.909 -41.7322C731.976 -7.18001 759.182 28.2491 776.408 72.7986C783.417 91.0393 787.1 111.56 794.109 129.801C805.277 158.565 813.355 166.107 813.949 201.361C814.305 226.266 812.761 251.172 809.316 275.551C795.772 369.912 754.43 447.786 711.899 518.118C666.873 592.484 596.662 605.463 535.954 640.366C506.492 657.379 477.029 678.952 456.358 715.258C428.439 764.193 425.232 826.106 428.202 887.493" stroke="white" stroke-miterlimit="10"/>
<path d="M673.642 -66.4622C698.828 -31.5591 725.44 4.04545 743.022 48.7704C750.744 68.2389 754.902 90.1629 762.506 109.631C773.673 138.747 781.633 147.692 782.227 182.945C782.702 208.728 780.92 234.511 777.237 259.592C762.862 357.811 719.975 439.719 676.018 513.735C631.824 588.101 560.781 600.905 501.024 637.562C424.16 684.918 388.282 764.37 392.796 888.898" stroke="white" stroke-miterlimit="10"/>
<path d="M645.132 -93.9988C669.842 -58.5696 695.622 -22.4388 712.136 22.8123C719.858 44.0348 723.897 67.1865 731.263 88.5844C741.242 117.875 749.083 129.626 749.677 164.003C750.033 190.487 748.132 216.971 744.093 242.754C728.649 344.306 683.98 429.897 638.479 506.894C594.76 580.735 523.598 594.415 464.91 633.703C388.996 684.567 353.713 767.176 357.039 891.179" stroke="white" stroke-miterlimit="10"/>
<path d="M619.353 -123.64C643.47 -87.3343 668.18 -49.8004 683.03 -3.14624C690.515 20.1809 693.723 45.2619 700.494 68.7644C707.504 93.4946 715.344 111.209 716.057 138.921C716.77 169.615 714.394 199.782 709.404 229.599C691.941 332.203 646.083 419.197 599.632 497.246C576.585 536.008 552.468 552.495 520.273 571.612C490.216 589.502 459.447 605.463 430.34 626.685C354.427 682.109 319.024 768.402 321.281 894.333" stroke="white" stroke-miterlimit="10"/>
<path d="M594.406 -153.983C617.453 -116.625 640.619 -77.8631 653.569 -30.332C660.459 -4.90015 662.954 21.9348 668.538 48.0682C673.884 73.1492 681.012 93.3192 681.606 120.33C682.319 151.374 679.467 181.892 674.002 211.884C654.994 316.593 607.117 405.341 558.884 484.618C515.759 555.477 447.33 574.243 391.85 619.67C317.243 680.706 283.266 772.436 284.81 898.543" stroke="white" stroke-miterlimit="10"/>
<path d="M568.386 -184.501C590.483 -145.564 611.629 -105.75 622.916 -56.991C629.331 -29.1037 630.994 -0.339437 635.271 28.2494C644.181 87.1811 648.933 134.186 637.172 194.17C616.5 300.107 566.485 389.732 516.351 468.834C472.632 537.938 405.985 560.915 352.287 610.901C279.343 678.778 247.029 776.471 247.979 903.455" stroke="white" stroke-miterlimit="10"/>
<path d="M539.4 -213.791C560.547 -173.276 580.03 -131.883 589.772 -82.2472C595.712 -51.9044 596.9 -20.8601 600.108 10.1842C606.166 69.4666 611.156 117.875 598.682 176.806C576.229 282.918 523.956 372.017 471.921 449.716C427.133 516.716 362.862 545.129 311.421 600.202C240.378 676.147 210.083 780.856 210.915 909.418" stroke="white" stroke-miterlimit="10"/>
<path d="M505.422 -240.801C542.369 -164.681 555.675 -96.1028 562.328 -5.07465C566.604 53.8569 571.475 102.966 558.051 160.67C533.578 265.554 479.048 353.075 425.112 427.441C378.542 491.634 317.597 526.888 268.77 587.749C200.222 673.164 172.066 785.415 172.779 916.432" stroke="white" stroke-miterlimit="10"/>
<path d="M464.556 -264.83C501.146 -185.904 515.402 -110.836 521.461 -17.3519C525.263 40.7028 529.777 89.4618 515.165 145.587C488.553 247.665 431.766 332.204 376.049 401.309C327.222 461.994 270.197 506.193 224.577 573.018C158.999 668.957 133.219 789.627 134.17 924.503" stroke="white" stroke-miterlimit="10"/>
<path d="M420.123 -277.282C458.258 -196.427 467.881 -122.762 471.801 -26.9986C474.177 31.5821 480.949 80.8671 467.168 138.045C443.408 236.439 389.353 318.873 333.517 380.085C280.532 437.964 225.17 490.231 180.858 563.544C117.893 667.902 94.6079 796.113 94.8455 933.971" stroke="white" stroke-miterlimit="10"/>
<path d="M375.93 -259.218C395.532 -215.545 409.669 -171.873 410.025 -118.554C410.263 -81.3708 403.729 -45.591 401.353 -8.93414C397.789 43.8587 406.818 94.0206 399.333 147.164C385.552 244.156 341.834 325.362 287.779 381.663C232.18 439.542 175.512 493.036 132.031 572.313C73.462 678.951 55.0478 809.442 54.6914 944.318" stroke="white" stroke-miterlimit="10"/>
<path d="M329.239 -220.28C347.178 -174.152 355.375 -131.357 344.683 -79.2653C337.674 -44.8885 324.606 -14.195 315.933 19.1294C302.509 70.6946 315.577 124.54 314.626 178.385C312.963 270.641 284.807 347.112 234.079 400.782C179.668 458.31 123.951 506.017 82.3702 585.996C26.8901 692.634 13.7031 824.879 13.7031 956.072" stroke="white" stroke-miterlimit="10"/>
<path d="M278.514 -172.223C311.303 -66.4622 252.496 -16.6509 217.806 63.8538C197.372 111.21 214.005 158.39 221.251 209.254C234.082 297.651 226.954 372.719 175.513 429.896C122.646 488.653 65.8595 529.87 26.774 612.479C-22.2909 716.311 -28.9438 846.101 -28.231 969.05" stroke="white" stroke-miterlimit="10"/>
<path d="M222.438 -126.622C248.099 -16.125 164.939 31.7569 120.388 97.5289C103.281 122.785 99.7167 139.447 106.607 172.947C111.953 198.73 120.269 223.285 127.754 247.84C151.989 326.766 168.384 399.904 116.23 462.344C66.8088 521.451 9.66549 553.372 -26.8065 635.455C-71.8321 736.832 -72.5449 866.622 -71.1193 983.433" stroke="white" stroke-miterlimit="10"/>
<path d="M159.474 -95.2263C170.761 -35.5932 151.277 -2.44416 119.201 32.6342C90.8074 63.6785 58.8499 87.0056 31.1692 119.278C22.0215 129.977 10.2602 141.728 5.86458 158.39C1.35014 175.929 6.93379 190.487 12.0422 207.324C19.5267 231.528 29.2684 253.978 39.2477 275.902C71.2052 345.884 114.092 420.25 58.4935 490.932C11.0918 551.443 -47.9523 576.348 -81.6918 660.185C-121.609 759.106 -116.976 888.195 -115.313 998.867" stroke="white" stroke-miterlimit="10"/>
<path d="M88.4302 -89.7893C95.7958 -55.2371 96.8651 -41.3812 83.7969 -12.0908C74.0552 9.83321 59.0863 25.4431 44.5926 40.0006C13.5855 71.2203 -21.3421 94.372 -51.0423 128.398C-75.8718 156.812 -84.069 176.28 -69.2189 219.952C-60.5464 245.384 -48.6663 268.361 -36.311 289.934C-0.0766617 353.075 66.5708 431.3 6.33861 508.823C-41.1818 569.859 -102.958 592.134 -134.56 679.479C-170.319 778.224 -161.765 908.014 -160.458 1015.7" stroke="white" stroke-miterlimit="10"/>
</g>
<defs>
<clipPath id="clip0_1952_1471">
<rect width="1830" height="1066" fill="white"/>
</clipPath>
</defs>
</svg>
