<?xml version="1.0" encoding="utf-8"?>
<!-- Generator: Adobe Illustrator 26.0.3, SVG Export Plug-In . SVG Version: 6.00 Build 0)  -->
<svg version="1.1" id="Layer_1" xmlns="http://www.w3.org/2000/svg" xmlns:xlink="http://www.w3.org/1999/xlink" x="0px" y="0px"
	 viewBox="0 0 200 200" style="enable-background:new 0 0 200 200;" xml:space="preserve">
<style type="text/css">
	.st0{fill-rule:evenodd;clip-rule:evenodd;}
</style>
<path class="st0" d="M192.9,7.1H7.1v185.9h185.9V7.1z M0,0v200h200V0H0z"/>
<path class="st0" d="M42.8,64.3c0.2-2.8,0.9-5.4,2-7.8h9c-0.4,2.4-0.6,5-0.7,7.8H42.8z M56.7,64.3c0.1-2.8,0.3-5.4,0.7-7.8h12
	c0.4,2.4,0.7,5,0.7,7.8h-5.8c0.4,0.2,0.8,0.4,1.3,0.7c2.1,1.1,4.8,2.6,7.6,4c0.1,0.1,0.3,0.1,0.4,0.2c0-0.5,0.1-0.9,0.1-1.4h10.3
	c-0.2,2.1-0.8,4.2-1.6,6c0.4,0.2,0.7,0.4,1,0.5c0.3,0.2,0.6,0.3,0.7,0.4c0.1,0.1,0.2,0.1,0.2,0.1c0,0,0.1,0,0.1,0.1c0,0,0,0,0.1,0
	l0,0c0,0,0.1,0.1,0.2,0.1c0.3,0.2,0.5,0.4,0.6,0.7c1.5-3.1,2.3-6.7,2.3-10.4c0-13.4-10.8-24.2-24.2-24.2
	c-13.4,0-24.2,10.8-24.2,24.2s10.8,24.2,24.2,24.2c1.7,0,3.3-0.2,4.9-0.5c0,0,0-0.1-0.1-0.1c-0.3-0.7-0.7-1.6-1.2-2.7
	c-0.3-0.7-0.6-1.4-1-2.2c-0.2,0.3-0.4,0.6-0.6,0.8c-0.8,0.9-1.5,1.2-2,1.2c-0.5,0-1.2-0.3-2-1.2c-0.8-0.9-1.6-2.3-2.4-4.3
	c-0.4-1-0.7-2-1-3.1h5c-0.5-1.2-1.1-2.4-1.6-3.5h-4.2c-0.3-1.9-0.5-4-0.6-6.2h2.1c0,0,0,0,0-0.1c-0.1-0.3-0.3-0.6-0.3-0.8
	c0-0.1-0.1-0.2-0.1-0.3c0,0,0-0.1-0.1-0.2c0,0,0-0.1,0-0.2c0,0-0.1-0.3-0.1-0.6c0-0.7,0.3-1.2,0.4-1.3c0-0.1,0.1-0.1,0.1-0.2H56.7z
	 M63.9,74.1c0.5,1.1,1,2.3,1.6,3.5h3.3c-0.3,1.1-0.6,2.2-1,3.1c-0.1,0.4-0.3,0.7-0.4,1c1.4,3.1,2.6,5.7,3.1,6.9
	c0.8-0.2,1.5-0.5,2.3-0.8c0.2-0.4,0.4-0.8,0.7-1.2l0,0l1.1-1.9l1.4,1.5c1.6-1,3.1-2.2,4.5-3.6l-1.9-1.9l1.9-1.1l0.1,0
	c0.5-0.3,1-0.6,1.4-0.8c0.4-0.3,0.8-0.5,0.9-0.6c0.5-0.3,0.6-1,0.3-1.3c-0.1-0.1-2.3-1.2-5.2-2.8h-4.9c0.1-0.8,0.2-1.6,0.3-2.5
	c-1.1-0.6-2.3-1.2-3.4-1.8c-0.1,1.5-0.3,2.9-0.5,4.3H63.9z M66.3,67.8h-5.2c0-0.1-0.1-0.2-0.1-0.3l-0.1-0.2
	c-0.4-0.9-0.6-1.4-0.6-1.5c0-0.1,0.1-0.3,0.3-0.5c0.1-0.1,0.4-0.3,0.5-0.3c0,0,0.6,0.3,1.5,0.7l0.2,0.1
	C63.6,66.4,64.9,67.1,66.3,67.8z M59,50.3c-0.3,0.8-0.6,1.7-0.9,2.7h10.5c-0.3-1-0.6-1.9-0.9-2.7c-0.7-1.9-1.5-3.3-2.4-4.3
	c-0.8-0.9-1.5-1.2-2-1.2c-0.5,0-1.2,0.3-2,1.2C60.6,47,59.8,48.4,59,50.3z M73.7,64.3c-0.1-2.7-0.3-5.4-0.7-7.8h9
	c1.2,2.4,1.9,5,2,7.8H73.7z M71.1,82c-0.4,1.2-1,2.3-1.5,3.2c4.3-1.3,8-4.1,10.6-7.6h-7.8C72,79.2,71.6,80.7,71.1,82z M79.8,53
	c-2.6-3.4-6.1-5.9-10.3-7.2c0.6,1,1.1,2.1,1.5,3.2c0.5,1.2,0.9,2.5,1.2,4H79.8z M47,53c2.6-3.4,6.1-5.9,10.3-7.2
	c-0.6,1-1.1,2.1-1.5,3.2c-0.5,1.2-0.9,2.5-1.2,4H47z M55.7,82c0.4,1.2,1,2.3,1.5,3.2c-4.3-1.3-8-4.1-10.6-7.6h7.8
	C54.8,79.2,55.2,80.7,55.7,82z M53.2,67.8c0.1,2.2,0.3,4.3,0.6,6.2h-9.1c-0.9-1.9-1.5-4-1.7-6.2H53.2z"/>
<path class="st0" d="M60.6,65.4c-0.1,0.1-0.3,0.4-0.3,0.5c0,0.3,10.3,23.1,10.5,23.4c0.3,0.4,0.9,0.2,1.3-0.2
	c0.2-0.3,0.8-1.3,1.4-2.4l1.1-1.9l3.2,3.2c1.9,1.9,3.3,3.2,3.5,3.2c0.4,0,3.7-3.2,3.7-3.7c0-0.2-1.3-1.6-3.1-3.5l-3.1-3.2l1.9-1.1
	c1.1-0.6,2.1-1.2,2.4-1.4c0.5-0.3,0.6-1,0.3-1.3C83,76.7,61.3,65.1,61,65.1C60.9,65.1,60.7,65.2,60.6,65.4z"/>
<path class="st0" d="M154.1,53.7l-97.5,97.5l-5-5l97.5-97.5L154.1,53.7z"/>
<path d="M153.6,139.2v-12.5h-0.5l-8.3,20.3l-8.3-20.3h-0.5v12.5V159h-4.4v-39.5h6.1l7,17.4h0.3l7-17.4h5.9V159h-4.4V139.2z"/>
</svg>
