<svg width="60" height="62" viewBox="0 0 60 62" fill="none" xmlns="http://www.w3.org/2000/svg">
<path fill-rule="evenodd" clip-rule="evenodd" d="M7.07025 19.0801C5.65187 22.0073 4.77766 25.2471 4.57906 28.6683H17.328C17.3944 25.3016 17.6835 22.0717 18.1635 19.0801H7.07025ZM22.5797 19.0801C22.0724 22.006 21.7565 25.2409 21.6848 28.6683H24.0853C24.0298 28.7493 23.978 28.8311 23.9301 28.9129C23.8289 29.0855 23.4655 29.7083 23.4607 30.5296C23.4586 30.9072 23.5424 31.2098 23.5473 31.2276C23.5695 31.3142 23.5918 31.384 23.6037 31.4203C23.6289 31.4975 23.655 31.5677 23.6726 31.6139C23.7102 31.7131 23.7573 31.8295 23.8066 31.9491C23.9076 32.194 24.0505 32.5297 24.2252 32.9348L24.2638 33.0243H21.7264C21.8356 35.7379 22.0982 38.3169 22.4867 40.7008H27.6529C28.2747 42.0963 28.9328 43.5695 29.5986 45.0568H23.3893C23.7485 46.4589 24.1558 47.7572 24.6029 48.9338C25.4981 51.2896 26.511 53.0456 27.525 54.1742C28.5398 55.3037 29.3775 55.6235 29.9924 55.6235C30.6072 55.6235 31.445 55.3037 32.4597 54.1742C32.7225 53.8818 32.9852 53.5472 33.2457 53.171C33.6896 54.154 34.1082 55.0791 34.4897 55.9199C35.1021 57.2697 35.6208 58.4065 35.9956 59.2184L36.0617 59.3612C34.102 59.7665 32.072 59.9795 29.9923 59.9795C13.5273 59.9795 0.179688 46.6319 0.179688 30.1669C0.179688 13.7018 13.5273 0.354248 29.9923 0.354248C46.4574 0.354248 59.8049 13.7018 59.8049 30.1669C59.8049 34.7532 58.7693 39.0977 56.9191 42.9792C56.7314 42.6696 56.4837 42.3766 56.1656 42.1158C56.0508 42.0216 55.9495 41.9551 55.9269 41.9404L55.9248 41.9389C55.8858 41.9133 55.8517 41.8922 55.8297 41.8788C55.7846 41.8511 55.7389 41.8243 55.7009 41.8023C55.6223 41.7568 55.5234 41.7011 55.4125 41.6392C55.1879 41.5139 54.8753 41.3422 54.4919 41.133C54.146 40.9443 53.7376 40.7226 53.2764 40.473C54.3053 38.1519 54.9973 35.6484 55.2904 33.0243H42.6177C42.5962 33.5916 42.5683 34.1545 42.5343 34.7126L42.0324 34.4451C38.647 32.6408 35.258 30.8428 32.6927 29.4949C32.1244 29.1963 31.5953 28.919 31.1147 28.6683H38.2999C38.2282 25.2409 37.9123 22.006 37.405 19.0801H22.5797ZM42.2944 37.6454C42.2944 37.6451 42.2944 37.6447 42.2945 37.6444C40.905 36.9028 39.4941 36.1512 38.12 35.4207C38.12 35.4211 38.1199 35.4214 38.1199 35.4217C36.5336 34.5784 34.9963 33.7633 33.5974 33.0243H33.5994C31.8278 32.0884 30.2784 31.2746 29.1329 30.6803L28.8599 30.5389C27.7738 29.9771 27.1126 29.6463 27.0623 29.646C27.0623 29.646 27.0623 29.646 27.0623 29.646C27.0614 29.6459 27.0607 29.6458 27.06 29.6458C26.9314 29.6451 26.6761 29.7927 26.4927 29.9739C26.3094 30.1553 26.1588 30.4121 26.158 30.545C26.1561 30.8719 38.8132 59.075 39.0745 59.4096C39.4346 59.8706 40.23 59.7166 40.6604 59.1024C40.7946 58.9109 41.1357 58.354 41.549 57.6568C41.5501 57.6563 41.5512 57.6559 41.5522 57.6555C41.8139 57.214 42.1046 56.7163 42.3899 56.2197L42.4252 56.1582L43.7822 53.7929L47.6812 57.7175C49.9759 60.0271 51.7456 61.6445 51.9795 61.6458C52.5 61.6488 56.5361 57.659 56.5391 57.1385C56.5404 56.9046 54.9436 55.1164 52.6605 52.7952L51.1059 51.2146C51.1063 51.2143 51.1066 51.2139 51.107 51.2136L48.782 48.8498L51.1641 47.5194L51.226 47.4848C51.8521 47.1347 52.4799 46.7762 52.9963 46.4753C53.5436 46.1564 53.9663 45.9019 54.1285 45.791C54.7481 45.3673 54.91 44.5773 54.454 44.2034C54.3543 44.1216 51.6645 42.6644 48.0061 40.7008H48.0041C46.2621 39.7658 44.3005 38.7161 42.2944 37.6454ZM36.4499 14.7242L23.5349 14.7242C23.8573 13.5323 24.2151 12.4203 24.6029 11.3999C25.4981 9.04419 26.511 7.28816 27.525 6.1595C28.5398 5.03002 29.3775 4.71024 29.9923 4.71024C30.6072 4.71024 31.445 5.03002 32.4597 6.1595C33.4737 7.28816 34.4867 9.04419 35.3819 11.3999C35.7696 12.4203 36.1274 13.5323 36.4499 14.7242ZM41.8212 19.0801C42.3012 22.0717 42.5904 25.3016 42.6568 28.6683H55.4056C55.207 25.2471 54.3327 22.0073 52.9144 19.0801H41.8212ZM22.4096 54.4751C21.7091 53.2803 21.0831 51.9342 20.531 50.4812C19.9075 48.8404 19.3619 47.0201 18.9056 45.0568H9.34224C12.5294 49.4691 17.0959 52.8193 22.4096 54.4751ZM18.0774 40.7008C17.7107 38.2742 17.4684 35.6978 17.3671 33.0243H4.69426C4.99698 35.7345 5.72519 38.3161 6.81056 40.7008H18.0774ZM40.9473 14.7242C40.519 12.9712 40.0183 11.3383 39.4538 9.85258C38.9016 8.39957 38.2756 7.05344 37.5751 5.85871C42.6646 7.44467 47.0686 10.585 50.2316 14.7242L40.9473 14.7242ZM22.4096 5.85867C17.3201 7.44461 12.916 10.5849 9.75299 14.7242L19.0374 14.7242C19.4657 12.9712 19.9664 11.3383 20.531 9.85258C21.0831 8.39955 21.7091 7.0534 22.4096 5.85867Z" fill="#F8F8F8"/>
</svg>
