<svg width="1440" height="1396" viewBox="0 0 1440 1396" fill="none" xmlns="http://www.w3.org/2000/svg">
<path d="M-170.998 207.288C-101.262 245.173 -35.921 251.487 33.5776 208.516C87.7509 174.84 132.658 118.54 184.574 79.0763C225.323 48.2073 257.28 48.2073 299.692 71.5344C331.768 89.249 361.469 113.979 389.031 143.971C431.918 190.801 469.34 246.927 518.405 280.777C598.239 336.026 691.498 338.306 777.867 333.395C922.566 325.327 1062.75 283.583 1196.05 199.746C1281.82 145.725 1364.98 73.9899 1457.88 49.9612C1516.93 34.7021 1575.73 49.9612 1633.59 23.477C1687.76 -1.4287 1750.73 -54.9233 1803.48 4.35923C1810.01 163.966 1838.76 314.979 1812.86 475.112C1798.25 565.789 1763.08 642.085 1739.56 727.501C1716.51 811.514 1702.26 899.736 1686.22 986.906C1676.6 1039.17 1656.76 1100.91 1686.58 1145.81C1702.61 1170.02 1722.1 1189.13 1738.49 1212.81C1775.44 1266.13 1804.07 1329.27 1830.44 1394.52C1594.74 1384.34 1359.52 1362.07 1124.88 1326.64C884.312 1290.51 644.097 1235.44 402.336 1220C134.44 1202.81 -127.16 1259.29 -385.434 1363.47C-385.553 1254.91 -395.532 1123.89 -363.574 1021.98C-333.399 925.87 -266.752 903.244 -216.261 838.875C-148.663 752.582 -233.368 673.48 -273.523 608.41C-300.848 564.211 -332.33 502.473 -300.253 449.154C-275.305 407.761 -236.933 382.855 -206.995 350.057C-191.075 332.518 -173.136 312.699 -165.295 284.987C-156.385 252.89 -160.306 239.56 -170.998 207.288Z" stroke="black" stroke-opacity="0.5" stroke-miterlimit="10"/>
<path d="M-385.673 1327.34C-235.627 1269.46 -87.3633 1220.35 67.3158 1199.65C178.751 1184.75 290.662 1180.36 402.454 1185.27C641.6 1195.62 880.153 1250.87 1117.64 1288.75C1349.54 1325.76 1582.39 1348.91 1815.59 1358.56" stroke="black" stroke-opacity="0.5" stroke-miterlimit="10"/>
<path d="M-385.673 1293.31C-302.393 1262.8 -219.708 1227.89 -135.359 1203.86C-68.4739 1184.75 -0.282065 1176.85 67.5534 1169.14C177.92 1156.51 288.523 1151.25 399.127 1153.88C636.135 1159.31 873.975 1213.16 1109.08 1252.8C1339.08 1291.56 1570.27 1316.82 1801.69 1326.46" stroke="black" stroke-opacity="0.5" stroke-miterlimit="10"/>
<path d="M-385.673 1261.57C-300.968 1232.1 -217.45 1194.22 -131.914 1170.01C-64.5535 1150.9 4.3512 1146.69 72.6618 1140.55C181.246 1130.73 289.949 1125.29 398.771 1125.99C631.74 1127.57 866.847 1178.08 1097.68 1218.77C1326.85 1259.29 1557.2 1287.88 1788.03 1298.4" stroke="black" stroke-opacity="0.5" stroke-miterlimit="10"/>
<path d="M-385.434 1231.58C-298.946 1203.16 -214.479 1162.12 -127.398 1137.57C-61.3442 1118.97 6.25365 1118.62 73.2575 1114.24C182.317 1107.22 291.376 1101.79 400.554 1101.08C629.484 1099.51 861.384 1145.28 1088.06 1186.68C1316.15 1228.42 1545.44 1261.74 1775.2 1273.32" stroke="black" stroke-opacity="0.5" stroke-miterlimit="10"/>
<path d="M-384.958 1203.34C-298.946 1176.85 -215.666 1134.41 -129.536 1108.98C-60.2746 1088.46 10.8873 1092.14 81.2175 1089.51C190.515 1085.47 299.693 1080.74 408.99 1078.98C634.593 1075.3 863.879 1115.82 1087.11 1158.09C1311.4 1200.71 1536.77 1238.42 1762.97 1251.57" stroke="black" stroke-opacity="0.5" stroke-miterlimit="10"/>
<path d="M-384.247 1176.85C-296.097 1151.42 -211.391 1105.82 -123.36 1080.04C-55.0492 1059.87 14.8058 1067.41 84.1857 1067.06C194.195 1066.53 304.205 1062.5 414.215 1059.69C638.155 1054.08 865.897 1088.11 1087.58 1131.6C1307.96 1174.75 1529.16 1217.72 1751.44 1232.63" stroke="black" stroke-opacity="0.5" stroke-miterlimit="10"/>
<path d="M-383.176 1151.95C-292.649 1127.74 -206.4 1078.63 -116.23 1052.32C-46.731 1032.15 24.1932 1044.08 94.5235 1045.84C203.345 1048.64 312.286 1045.84 421.108 1042.33C641.127 1035.31 864.355 1061.27 1082.12 1104.94C1300.83 1148.79 1519.78 1198.43 1740.51 1215.96" stroke="black" stroke-opacity="0.5" stroke-miterlimit="10"/>
<path d="M-381.75 1128.44C-289.204 1105.47 -201.766 1053.2 -109.933 1026.54C-39.3652 1006.02 32.1531 1022.16 103.434 1026.37C212.374 1032.86 321.434 1031.28 430.374 1027.24C647.187 1019.35 866.375 1036.72 1081.17 1080.56C1297.03 1124.76 1512.42 1181.41 1730.18 1201.41" stroke="black" stroke-opacity="0.5" stroke-miterlimit="10"/>
<path d="M-379.85 1106.52C-284.69 1084.77 -195.47 1028.82 -101.261 1001.64C-29.2676 980.941 43.3199 1001.81 115.789 1008.48C223.779 1018.3 331.888 1018.3 439.878 1014.09C652.888 1005.67 867.205 1013.39 1078.43 1056.89C1292.39 1101.08 1504.93 1165.8 1720.79 1188.96" stroke="black" stroke-opacity="0.5" stroke-miterlimit="10"/>
<path d="M-377.474 1085.83C-279.582 1065.3 -188.58 1005.32 -91.757 977.96C-20.2387 957.79 50.9231 982.169 122.56 991.29C231.738 1005.15 341.154 1006.9 450.689 1002.34C662.392 993.394 873.858 991.29 1084.02 1035.84C1293.58 1080.21 1500.77 1151.77 1712 1177.91" stroke="black" stroke-opacity="0.5" stroke-miterlimit="10"/>
<path d="M-374.505 1066.36C-273.762 1047.24 -180.978 983.045 -81.5414 955.509C-8.47869 935.339 63.7524 964.805 136.577 976.205C246.468 993.394 356.716 996.901 467.082 991.99C673.558 982.695 878.253 970.943 1083.54 1014.44C1291.21 1058.29 1494.83 1138.79 1703.92 1168.26" stroke="black" stroke-opacity="0.5" stroke-miterlimit="10"/>
<path d="M-370.823 1047.94C-270.436 1030.75 -178.247 966.384 -79.7605 936.742C-3.49021 913.766 68.9785 946.389 144.655 960.946C255.853 982.344 367.763 987.957 479.674 982.52C684.962 972.873 886.687 950.423 1091.26 994.797C1294.53 1038.82 1492.33 1126.52 1696.79 1159.31" stroke="black" stroke-opacity="0.5" stroke-miterlimit="10"/>
<path d="M-366.426 1030.58C-263.425 1014.79 -169.216 946.214 -68.235 916.397C9.57975 893.245 83.3552 930.955 160.22 947.968C270.467 972.347 381.665 979.713 493.1 974.276C584.34 969.892 675.341 956.036 766.58 950.774C875.878 944.46 985.056 951.3 1093.28 974.627C1294.53 1018.12 1488.53 1114.77 1690.5 1151.25" stroke="black" stroke-opacity="0.5" stroke-miterlimit="10"/>
<path d="M-361.317 1014.09C-256.297 999.883 -160.781 927.797 -58.137 897.279C21.3409 873.601 95.354 915.695 173.406 935.164C284.01 963.051 395.921 972.171 507.95 966.208C598.12 961.472 687.815 944.109 777.866 936.391C885.263 927.271 992.777 932.182 1099.22 955.334C1297.38 998.48 1486.4 1103.36 1684.91 1143.18" stroke="black" stroke-opacity="0.5" stroke-miterlimit="10"/>
<path d="M-355.375 998.305C-247.741 985.501 -150.562 908.855 -45.5417 878.513C35.4807 855.185 110.682 902.015 189.803 923.939C299.457 954.282 410.655 964.981 522.09 958.666C611.904 953.58 701.005 932.533 790.462 922.36C894.888 910.609 999.314 913.591 1103.03 935.866C1299.29 978.135 1484.02 1091.96 1679.93 1135.64" stroke="black" stroke-opacity="0.5" stroke-miterlimit="10"/>
<path d="M-348.604 983.396C-238.476 972.171 -139.871 890.439 -32.4747 860.622C47.9536 838.347 121.373 887.282 199.306 911.31C310.385 945.512 423.365 958.315 536.583 951.475C626.04 946.038 714.665 921.132 803.766 908.679C907.48 894.122 1011.43 895.35 1114.55 918.151C1306.53 960.771 1484.73 1081.09 1676 1127.92" stroke="black" stroke-opacity="0.5" stroke-miterlimit="10"/>
<path d="M-340.765 968.838C-231.943 959.718 -134.169 879.038 -28.7929 845.889C16.2327 831.682 53.4175 834.664 97.1363 854.308C136.578 872.198 176.377 887.807 216.531 901.137C328.323 937.794 442.135 951.825 556.421 943.407C642.433 937.093 727.614 909.731 813.032 894.999C915.438 877.284 1018.32 876.056 1120.49 898.331C1310.81 939.899 1484.38 1068.64 1673.15 1119.15" stroke="black" stroke-opacity="0.5" stroke-miterlimit="10"/>
<path d="M-331.973 954.983C-221.844 947.616 -123.239 863.428 -16.7933 829.753C28.9451 815.195 66.011 818.879 110.324 840.276C150.122 859.394 190.396 876.407 231.145 890.614C343.174 929.902 457.579 945.161 572.46 935.339C657.878 927.972 742.108 897.805 826.695 880.617C927.675 860.096 1029.25 856.939 1130.23 879.038C1317.94 920.08 1485.92 1056.01 1671.25 1109.68" stroke="black" stroke-opacity="0.5" stroke-miterlimit="10"/>
<path d="M-322.111 941.478C-210.201 935.865 -110.408 847.117 -2.41755 813.442C45.1029 798.709 80.5056 804.847 126.006 827.824C163.904 846.941 202.158 864.13 241.006 878.687C354.342 921.132 470.411 938.145 587.192 926.745C672.729 918.326 756.721 885.177 841.308 865.533C942.051 842.206 1043.27 837.47 1144.25 860.271C1328.04 901.488 1489.49 1043.03 1670.3 1099.33" stroke="black" stroke-opacity="0.5" stroke-miterlimit="10"/>
<path d="M-311.066 928.323C-197.73 924.639 -96.9868 831.156 12.429 797.481C61.4938 782.397 95.9462 791.693 141.922 815.897C180.295 836.067 219.143 854.132 258.466 869.391C370.614 912.888 485.851 930.427 601.564 917.098C687.457 907.276 771.33 871.496 856.036 849.397C954.403 823.789 1053.48 817.3 1152.44 839.224C1334.92 879.564 1491.62 1027.95 1670.18 1087.23" stroke="black" stroke-opacity="0.5" stroke-miterlimit="10"/>
<path d="M-298.827 915.345C-184.303 913.766 -82.8467 815.196 27.6383 782.047C72.3076 768.542 106.997 776.084 148.815 799.411C190.515 822.563 233.045 843.259 276.051 860.447C387.012 904.646 501.18 922.185 615.823 906.575C702.191 894.824 786.183 856.764 871.126 832.384C969.493 804.146 1068.81 795.903 1168.13 819.055C1246.54 837.295 1321.14 871.672 1393.85 917.976C1485.21 976.206 1573.95 1039.35 1671.25 1073.55" stroke="black" stroke-opacity="0.5" stroke-miterlimit="10"/>
<path d="M-285.403 902.365C-170.76 902.891 -69.3041 800.638 40.9433 767.138C128.024 740.654 207.859 816.248 290.307 849.923C401.267 895.349 515.791 912.889 630.434 894.297C716.803 880.266 800.32 840.803 885.144 814.143C982.798 783.449 1081.4 773.803 1180.48 796.779C1258.06 814.845 1331.84 849.923 1403.24 897.805C1491.98 957.438 1577.87 1022.51 1673.15 1057.59" stroke="black" stroke-opacity="0.5" stroke-miterlimit="10"/>
<path d="M-270.553 889.387C-155.434 892.194 -53.9783 784.854 56.6255 751.88C140.618 726.799 220.096 803.27 299.336 837.121C413.029 885.529 530.761 903.243 648.374 879.741C733.792 862.552 816.121 822.388 899.876 794.15C995.867 761.877 1092.93 750.302 1190.58 772.752C1267.92 790.466 1341.34 825.72 1411.91 875.181C1498.75 936.041 1582.39 1003.39 1676.12 1039.52" stroke="black" stroke-opacity="0.5" stroke-miterlimit="10"/>
<path d="M-250.002 872.549C-136.309 879.214 -35.5659 768.191 73.7311 736.796C119.707 723.641 150.477 738.725 193.007 763.455C233.162 786.782 273.911 807.654 315.491 825.018C427.877 872.023 544.421 889.562 660.252 864.13C746.739 845.188 829.9 804.497 914.843 774.856C1011.55 741.005 1109.44 728.552 1208.04 751.178C1282.77 768.366 1353.22 802.568 1421.17 851.327C1506.35 912.538 1588.09 980.941 1679.92 1019" stroke="black" stroke-opacity="0.5" stroke-miterlimit="10"/>
<path d="M-225.765 849.572C-118.606 861.324 -18.5755 755.562 83.831 723.641C128.738 709.61 160.22 722.063 201.919 745.214C242.668 767.84 284.011 788.185 325.948 805.374C438.096 851.151 554.283 871.146 670.114 847.818C757.077 830.455 840.832 790.641 926.131 761.526C1021.77 728.727 1118.71 714.345 1216.48 733.638C1294.18 748.897 1365.34 783.274 1435.67 833.787C1517.52 892.543 1596.88 956.912 1683.96 997.603" stroke="black" stroke-opacity="0.5" stroke-miterlimit="10"/>
<path d="M-208.183 827.649C-159.593 835.366 -113.142 811.688 -67.7597 788.536C-12.5172 760.298 41.8937 725.22 99.3935 707.505C143.469 694 174.238 706.277 215.462 728.026C255.973 749.424 296.96 769.068 338.54 785.73C450.332 830.63 566.163 853.08 681.756 832.033C769.194 816.073 853.899 777.662 939.792 749.599C1035.31 718.379 1132.13 703.822 1229.79 721.361C1306.53 735.217 1375.67 767.84 1445.41 816.423C1525.72 872.198 1603.89 933.234 1688 976.03" stroke="black" stroke-opacity="0.5" stroke-miterlimit="10"/>
<path d="M-196.422 806.777C-147.832 816.423 -100.549 792.745 -54.9298 769.944C1.50077 741.882 57.3373 707.154 115.906 689.79C160.1 676.811 190.395 689.79 232.094 710.837C272.486 731.183 313.235 749.95 354.459 766.261C466.013 810.285 581.607 835.19 696.962 815.546C783.687 800.813 868.155 764.858 953.573 738.9C1050.04 709.434 1147.57 695.754 1245.94 712.767C1319.72 725.57 1385.41 755.913 1453.13 800.287C1532.61 852.378 1610.31 909.556 1692.04 954.106" stroke="black" stroke-opacity="0.5" stroke-miterlimit="10"/>
<path d="M-190.124 786.783C-141.297 798.008 -92.9447 774.33 -46.7311 752.231C11.4814 724.519 68.9812 689.967 129.095 672.252C209.285 648.749 290.308 714.521 367.172 744.864C477.895 788.537 592.775 817.301 707.537 800.463C794.618 787.66 879.917 754.16 965.811 730.307C1062.28 703.296 1159.58 690.493 1257.59 706.629C1413.57 732.411 1551.38 849.924 1695.96 932.358" stroke="black" stroke-opacity="0.5" stroke-miterlimit="10"/>
<path d="M-188.58 767.314C-138.802 779.943 -88.906 756.089 -41.6231 734.516C18.9654 706.804 78.7224 672.252 141.093 654.011C185.762 640.857 217.363 650.679 260.013 670.674C299.692 689.09 339.491 706.804 379.646 722.765C489.418 766.437 603.229 799.236 717.397 785.555C804.835 775.207 890.966 744.338 977.334 722.765C1073.68 698.736 1170.86 687.16 1268.4 702.595C1419.39 726.624 1560.05 828 1699.88 910.259" stroke="black" stroke-opacity="0.5" stroke-miterlimit="10"/>
<path d="M-191.074 748.198C-140.346 761.878 -88.7865 738.201 -40.3156 716.978C22.7678 689.442 85.0196 655.065 149.647 635.596C172.576 628.756 197.405 621.565 220.809 626.301C237.917 629.808 254.668 640.332 271.062 647.698C310.148 665.238 349.471 682.426 388.913 698.387C497.259 742.235 609.408 779.768 722.506 770.823C811.37 763.808 899.401 735.394 987.314 716.277C1082.71 695.405 1178.82 685.408 1275.05 699.79C1422.48 721.889 1567.3 806.253 1703.92 887.985" stroke="black" stroke-opacity="0.5" stroke-miterlimit="10"/>
<path d="M-197.135 729.256C-144.981 743.638 -91.6394 720.135 -41.5053 699.264C24.5481 671.727 89.6511 637.526 156.892 616.479C203.581 601.921 237.083 604.377 281.871 623.67C322.976 641.56 364.082 659.275 405.306 676.288C511.514 719.785 621.167 760.826 732.246 755.214C822.416 750.654 911.992 725.222 1001.45 708.91C1096.37 691.722 1191.89 684.005 1287.28 698.562C1353.46 708.735 1416.54 731.887 1480.69 756.968C1557.8 787.311 1634.18 820.46 1708.08 865.009" stroke="black" stroke-opacity="0.5" stroke-miterlimit="10"/>
<path d="M-206.043 710.489C-152.107 725.572 -96.7459 702.07 -44.8298 681.374C28.5893 652.083 101.058 614.199 175.784 592.976C221.879 579.822 256.331 584.558 301 603.149C338.541 618.934 376.082 635.07 413.624 650.68C520.069 695.405 629.723 742.235 741.396 739.779C831.21 737.85 920.904 716.277 1010.24 703.122C1106.23 689.091 1202.7 683.478 1298.93 698.562C1363.32 708.559 1425.81 730.308 1489.13 749.776C1565.16 773.279 1640.6 798.886 1712.71 842.383" stroke="black" stroke-opacity="0.5" stroke-miterlimit="10"/>
<path d="M-217.212 691.547C-161.375 707.157 -103.994 683.83 -49.9399 663.309C27.0432 633.843 102.957 596.309 181.009 572.982C226.985 559.302 265.596 560.003 310.622 578.244C347.569 593.152 384.397 608.762 421.225 624.547C528.028 670.325 637.325 722.767 749.592 723.819C839.168 724.696 928.981 706.806 1018.08 696.984C1113.24 686.461 1208.64 682.953 1303.68 697.51C1368.55 707.508 1432.34 727.678 1496.85 742.235C1571.93 759.073 1646.54 776.963 1717.23 819.583" stroke="black" stroke-opacity="0.5" stroke-miterlimit="10"/>
<path d="M-230.044 672.252C-167.317 689.616 -100.788 661.728 -40.1997 638.576C34.7638 609.987 108.896 575.083 184.691 552.282C231.855 538.075 272.841 534.567 319.174 552.633C358.022 567.717 396.632 584.028 435.124 601.042C538.362 646.293 643.263 701.543 751.847 707.506C842.73 712.417 934.564 697.333 1025.33 690.668C1121.56 683.477 1217.9 682.249 1313.78 697.333C1377.57 707.331 1440.42 725.396 1504.22 734.341C1578.47 744.69 1652.36 755.038 1721.98 796.782" stroke="black" stroke-opacity="0.5" stroke-miterlimit="10"/>
<path d="M-243.823 652.435C-179.552 670.149 -111.36 642.964 -48.9894 619.987C28.9441 591.398 105.927 557.022 184.455 532.291C236.608 515.805 281.278 509.666 332.956 528.959C368.359 542.113 403.524 556.846 438.451 572.456C543.472 619.286 649.323 681.374 759.927 690.495C849.978 697.861 941.337 686.636 1031.51 683.128C1127.97 679.27 1224.56 680.147 1320.55 695.055C1383.04 704.877 1444.1 721.013 1506.95 724.521C1581.91 728.73 1657.23 731.01 1727.8 773.104" stroke="black" stroke-opacity="0.5" stroke-miterlimit="10"/>
<path d="M-258.078 632.086C-191.668 650.502 -121.576 623.141 -57.1855 600.515C23.8369 572.102 103.909 537.199 185.288 511.241C237.798 494.404 286.506 484.231 339.254 502.823C376.439 515.977 413.267 531.411 449.858 547.898C553.215 595.078 656.69 661.025 765.631 672.776C855.682 682.423 947.159 674.881 1037.33 674.355C1132.96 673.828 1228.72 676.635 1323.88 691.192C1387.79 701.014 1449.45 715.747 1513.96 714.344C1588.09 712.765 1663.29 707.854 1733.38 749.597" stroke="black" stroke-opacity="0.5" stroke-miterlimit="10"/>
<path d="M-272.098 610.688C-204.619 629.631 -133.219 602.971 -67.5221 580.697C21.1035 550.705 108.422 512.996 197.523 485.81C250.033 469.85 297.554 460.379 349.945 478.269C386.179 490.546 421.938 505.279 457.46 521.59C559.272 568.77 659.659 637.699 766.818 653.484C859.245 667.164 953.93 661.727 1046.71 664.182C1141.16 666.638 1235.61 671.549 1329.58 685.58C1394.92 695.402 1456.7 708.205 1522.51 702.067C1593.44 695.577 1673.03 680.494 1739.68 725.92" stroke="black" stroke-opacity="0.5" stroke-miterlimit="10"/>
<path d="M-285.284 588.413C-216.38 608.408 -143.911 581.924 -76.4318 559.825C14.8074 530.009 104.859 492.125 196.454 464.062C249.677 447.751 299.692 435.123 353.272 451.961C389.031 463.185 424.434 477.217 459.361 493.528C562.362 541.409 662.63 615.599 770.858 634.365C863.404 650.326 958.445 647.87 1051.35 652.781C1146.98 657.867 1242.5 664.532 1337.66 678.388C1400.62 687.508 1459.55 698.558 1522.87 689.087C1594.74 678.563 1678.26 654.36 1746.33 702.592" stroke="black" stroke-opacity="0.5" stroke-miterlimit="10"/>
<path d="M-297.045 564.913C-227.903 585.96 -154.959 559.826 -87.0046 538.779C11.6004 508.261 108.542 466.342 207.385 437.753C259.301 422.669 308.128 411.794 360.282 427.054C395.209 437.226 429.661 450.732 463.639 466.517C566.996 514.75 666.551 593.326 775.135 613.496C867.325 630.685 962.009 631.211 1054.79 638.402C1150.9 645.769 1246.89 654.012 1342.65 666.991C1407.16 675.761 1466.8 684.706 1531.42 672.078C1601.99 658.222 1686.81 628.405 1753.94 678.392" stroke="black" stroke-opacity="0.5" stroke-miterlimit="10"/>
<path d="M-306.669 539.833C-237.289 562.283 -163.632 536.501 -95.3218 516.155C5.06515 486.163 103.789 444.771 204.295 415.305C256.567 400.046 306.939 386.891 359.805 400.572C394.495 409.517 428.591 422.321 462.212 437.58C565.806 484.935 664.055 566.668 772.164 590.346C867.561 611.217 966.404 612.971 1062.63 622.267C1158.39 631.563 1254.14 640.859 1349.77 652.61C1414.28 660.503 1473.68 667.518 1538.19 652.435C1608.17 636.123 1695.25 601.396 1761.78 654.364" stroke="black" stroke-opacity="0.5" stroke-miterlimit="10"/>
<path d="M-313.677 513.348C-245.485 537.728 -172.066 512.471 -104.468 493.178C-3.36827 464.239 95.9495 424.074 196.812 393.731C249.322 377.771 301.594 362.687 355.173 374.263C391.645 382.155 427.642 394.608 462.807 410.569C567.471 457.749 665.363 542.99 774.541 567.544C869.939 588.942 968.543 592.625 1064.77 603.324C1161.12 614.023 1257.59 623.845 1354.05 634.018C1419.99 640.858 1481.29 646.12 1546.87 629.458C1616.13 611.743 1705.11 574.034 1770.57 630.51" stroke="black" stroke-opacity="0.5" stroke-miterlimit="10"/>
<path d="M-316.054 485.286C-242.041 514.05 -160.424 485.637 -87.0051 463.538C6.37254 435.3 98.4434 399.169 191.702 370.054C247.064 352.69 301.475 338.133 357.905 350.761C391.288 358.303 424.196 369.703 456.51 384.611C563.193 433.721 661.68 522.82 773.947 544.042C968.068 580.524 1166.11 587.013 1361.3 606.131C1426.76 612.445 1485.8 616.128 1550.67 596.309C1624.21 573.859 1716.28 527.205 1788.03 582.102" stroke="black" stroke-opacity="0.5" stroke-miterlimit="10"/>
<path d="M-306.432 457.574C-231.706 488.443 -151.634 463.362 -77.2644 439.859C12.1929 411.621 100.106 374.263 189.325 344.446C244.33 326.03 297.672 311.473 353.627 325.504C388.436 334.273 422.532 347.954 455.677 365.318C563.311 421.619 660.609 511.068 776.797 525.45C973.175 549.83 1170.62 544.568 1367.36 561.23C1396.46 563.686 1425.81 569.298 1454.79 570.175C1491.86 571.228 1529.28 555.793 1564.92 542.113C1639.41 513.173 1731.48 458.275 1807.4 506.157" stroke="black" stroke-opacity="0.5" stroke-miterlimit="10"/>
<path d="M-286.592 430.037C-211.866 462.66 -133.695 440.385 -59.2065 415.304C25.6175 386.715 108.541 347.778 193.008 317.084C246.588 297.616 297.553 283.585 352.083 299.545C386.535 309.543 420.156 324.977 452.826 344.095C563.905 409.34 660.491 499.667 783.331 510.191C982.442 527.204 1181.2 496.861 1380.31 505.28C1409.18 506.508 1438.28 511.769 1467.03 511.945C1504.57 512.12 1542.47 494.405 1578.11 478.796C1651.65 446.524 1742.41 386.189 1818.92 430.738" stroke="black" stroke-opacity="0.5" stroke-miterlimit="10"/>
<path d="M-260.218 402.501C-186.324 436.527 -110.885 417.234 -37.2281 390.223C42.131 361.108 119.352 320.417 198.236 288.496C249.914 267.624 297.91 254.295 350.539 272.185C384.991 283.76 418.374 300.949 450.569 322.171C501.654 355.671 549.293 399.344 600.496 432.493C661.441 471.956 726.188 492.477 792.597 496.335C995.272 508.262 1194.03 444.946 1395.87 440.912C1424.5 440.385 1453.25 444.069 1481.88 443.718C1519.07 443.016 1556.13 425.302 1591.3 408.815C1662.1 375.315 1749.78 312.7 1824.38 356.723" stroke="black" stroke-opacity="0.5" stroke-miterlimit="10"/>
<path d="M-231.109 374.261C-85.5781 444.944 68.507 319.188 205.841 257.275C255.262 235 299.694 223.951 349.947 243.77C382.498 256.574 413.862 274.288 444.156 296.037C496.904 333.921 545.375 383.557 599.073 418.636C662.631 460.203 730.942 478.62 800.203 481.426C914.371 486.161 1029.37 463.536 1141.4 433.368C1232.16 408.989 1322.45 378.822 1414.76 370.578C1441.73 368.123 1468.58 369.175 1495.55 368.824C1531.9 368.298 1567.42 352.162 1601.75 335.5C1669 302.702 1753.23 238.859 1824.15 284.812" stroke="black" stroke-opacity="0.5" stroke-miterlimit="10"/>
<path d="M-202.717 344.973C-59.2051 417.761 78.723 290.952 211.661 224.654C256.212 202.379 294.941 191.856 340.561 210.973C375.726 225.706 409.465 246.753 441.66 272.361C492.151 312.876 538.483 364.091 590.875 399.52C658.354 445.122 732.01 462.31 805.786 464.415C925.775 467.923 1046.36 434.599 1162.07 390.049C1250.34 356.023 1337.66 313.929 1428.66 298.67C1457.41 293.759 1485.92 293.408 1514.79 292.18C1550.19 290.601 1584.29 275.693 1617.67 259.031C1678.26 228.688 1757.62 167.827 1820.94 216.761" stroke="black" stroke-opacity="0.5" stroke-miterlimit="10"/>
<path d="M-178.958 313.927C-37.7035 388.118 84.1865 264.116 212.135 191.328C254.785 167.124 290.069 158.355 334.025 178.174C369.19 194.134 402.811 216.935 434.412 244.472C484.071 287.794 529.097 342.165 581.726 378.296C652.887 427.405 731.89 442.314 809.705 443.191C935.159 444.769 1060.38 403.026 1178.94 344.971C1266.02 302.351 1351.44 248.681 1442.56 227.459C1505.29 212.901 1565.4 218.163 1626.46 187.82C1683.13 159.582 1757.26 101.528 1815.36 153.794" stroke="black" stroke-opacity="0.5" stroke-miterlimit="10"/>
<path d="M-163.274 280.955C-97.3398 316.384 -36.9888 314.63 29.3022 281.656C92.2668 250.436 147.866 195.188 208.454 156.075C249.322 129.767 282.111 122.751 324.404 143.447C359.451 160.46 392.477 184.489 423.603 213.779C472.074 259.557 515.555 316.033 567.946 352.339C642.554 404.08 726.546 415.831 807.925 415.305C939.319 414.253 1069.17 367.774 1191.3 297.792C1277.55 248.332 1361.66 185.191 1453.37 159.759C1514.08 142.921 1574.19 150.989 1633.59 121.874C1687.17 95.5651 1756.31 41.0182 1809.89 96.0913" stroke="black" stroke-opacity="0.5" stroke-miterlimit="10"/>
<path d="M-159.355 245.7C-89.738 283.584 -24.635 284.286 44.3884 242.192C98.3241 209.394 145.488 158.53 197.523 120.47C239.46 89.7764 272.487 86.2686 316.324 109.771C348.163 126.959 378.101 149.76 406.138 177.823C454.371 226.231 496.664 286.04 550.244 322.346C628.058 375.139 716.803 382.33 801.151 379.348C937.535 374.437 1070.59 328.134 1196.17 250.26C1283.25 196.239 1367.6 125.381 1461.21 99.0722C1519.07 82.9361 1577.04 93.9858 1633.71 67.1509C1687.53 41.8945 1752.39 -11.4246 1805.26 46.1039" stroke="black" stroke-opacity="0.5" stroke-miterlimit="10"/>
<path d="M1678.26 0.32666C1676.48 233.598 1651.05 491.248 1573.6 698.21C1551.38 757.493 1519.54 807.304 1494 863.429C1467.74 921.309 1427.47 993.921 1424.86 1066.71C1423.43 1104.42 1433.29 1140.9 1443.51 1174.93C1463.82 1242.8 1488.89 1307.87 1512.06 1373.64" stroke="black" stroke-opacity="0.5" stroke-miterlimit="10"/>
<path d="M1650.7 14.8843C1647.49 178.174 1623.61 345.498 1591.89 501.596C1578.59 567.017 1563.38 639.279 1539.5 698.736C1518.24 751.705 1482.95 788.537 1457.65 836.945C1426.52 896.578 1383.16 973.224 1376.15 1050.75C1372.7 1088.98 1379.59 1127.04 1388.39 1162.65C1405.85 1233.51 1430.8 1300.86 1453.96 1368.03" stroke="black" stroke-opacity="0.5" stroke-miterlimit="10"/>
<path d="M1621.83 28.5635C1617.55 193.432 1585.6 361.457 1552.45 518.081C1539.98 577.188 1528.45 649.449 1504.93 702.242C1484.5 748.019 1446.24 770.645 1421.65 811.511C1385.66 871.32 1340.04 952.526 1328.51 1033.03C1312.47 1144.23 1365.82 1268.41 1397.77 1362.07" stroke="black" stroke-opacity="0.5" stroke-miterlimit="10"/>
<path d="M1591.53 38.563C1587.38 203.255 1548.41 370.052 1515.03 525.975C1505.76 569.121 1496.49 612.267 1486.87 655.063C1482.95 672.602 1478.56 691.369 1470.6 706.101C1461.21 723.465 1448.97 730.305 1435.67 738.724C1416.9 750.826 1400.5 766.436 1385.77 787.834C1345.62 846.414 1298.1 932.005 1282.06 1013.56C1259.37 1129.5 1309.26 1256.3 1342.88 1355.75" stroke="black" stroke-opacity="0.5" stroke-miterlimit="10"/>
<path d="M1559.69 42.4214C1557.08 209.219 1511.22 377.244 1477.6 534.922C1468.93 575.613 1461.92 616.83 1453.72 657.696C1450.52 673.657 1446.6 692.95 1438.64 705.578C1428.89 721.012 1416.42 722.065 1403.23 726.625C1382.92 733.465 1365.69 746.97 1350.01 767.316C1322.92 802.57 1300.35 848.522 1278.61 890.792C1261.5 924.116 1245.23 959.37 1235.96 999.184C1208.16 1117.75 1254.97 1246.31 1290.02 1349.62" stroke="black" stroke-opacity="0.5" stroke-miterlimit="10"/>
<path d="M1526.79 41.0171C1526.79 214.129 1475.23 386.363 1441.13 550.004C1432.46 591.747 1429.73 665.938 1406.68 698.21C1395.51 713.82 1381.5 712.592 1367.24 715.574C1346.09 719.783 1327.92 731.71 1311.17 751.354C1282.77 784.327 1260.08 830.982 1238.1 873.076C1219.45 908.68 1201.39 946.214 1190.7 988.834C1160.88 1108.1 1203.77 1237.01 1238.46 1342.95" stroke="black" stroke-opacity="0.5" stroke-miterlimit="10"/>
<path d="M1495.55 42.9473C1497.45 215.007 1444.7 385.137 1410.01 546.848C1401.22 588.065 1398.13 661.554 1373.77 692.072C1361.78 707.156 1346.21 704.876 1331.48 706.981C1309.74 710.138 1290.61 720.486 1272.67 739.077C1242.86 770.122 1220.52 817.828 1198.19 859.747C1178.94 896.053 1160.05 933.937 1148.17 976.908C1115.03 1096.7 1154.35 1226.84 1188.21 1335.94" stroke="black" stroke-opacity="0.5" stroke-miterlimit="10"/>
<path d="M1465.73 48.0332C1469.05 216.059 1416.07 382.33 1380.43 538.955C1370.8 581.225 1367.48 658.222 1340.39 687.687C1327.56 701.719 1311.17 698.562 1296.08 700.316C1274.22 702.947 1254.38 712.067 1235.73 729.606C1205.08 758.546 1183.34 806.252 1160.76 847.645C1141.04 883.776 1121.32 921.134 1108.14 963.579C1070.36 1084.07 1106.12 1215.62 1139.38 1328.92" stroke="black" stroke-opacity="0.5" stroke-miterlimit="10"/>
<path d="M1437.1 56.1016C1441.37 221.847 1387.08 383.909 1350.13 536.851C1340.04 578.945 1336.23 654.363 1308.55 682.777C1295.13 696.633 1278.02 693.651 1262.46 695.405C1240.12 697.86 1219.57 706.279 1200.33 723.292C1168.84 751.004 1147.22 798.886 1124.17 839.928C1103.86 876.058 1083.31 913.242 1068.81 955.336C1027.71 1074.95 1059.78 1206.15 1092.1 1321.73" stroke="black" stroke-opacity="0.5" stroke-miterlimit="10"/>
<path d="M1409.29 66.8005C1414.04 229.739 1358.68 386.539 1320.19 535.447C1309.38 577.365 1304.99 650.854 1277.19 678.917C1263.29 692.948 1245.7 690.493 1229.78 692.422C1207.21 695.053 1186.07 703.121 1166.23 719.608C1134.15 746.267 1112.65 793.974 1089 834.664C1068.1 870.62 1046.71 907.101 1030.91 948.669C986.361 1066.53 1014.75 1197.02 1046 1314.18" stroke="black" stroke-opacity="0.5" stroke-miterlimit="10"/>
<path d="M1382.09 79.9548C1387.32 239.737 1330.53 390.399 1290.26 534.395C1278.62 575.963 1273.51 647.523 1246.18 675.586C1232.05 690.143 1214.11 688.565 1197.71 691.02C1174.9 694.353 1153.4 702.245 1133.08 718.557C1100.65 744.515 1079.15 791.695 1054.91 831.86C1033.41 867.465 1011.08 903.069 994.087 943.936C945.973 1059.34 970.921 1188.61 1000.98 1307.17" stroke="black" stroke-opacity="0.5" stroke-miterlimit="10"/>
<path d="M1355 95.0378C1360.47 251.312 1302.49 395.134 1260.44 533.518C1247.84 574.91 1242.14 644.015 1215.41 672.779C1201.27 688.038 1183.1 687.687 1166.35 690.844C1143.42 695.054 1121.68 703.297 1101.13 719.433C1068.57 745.041 1046.95 791.519 1022.12 830.807C1000.03 865.886 976.859 900.438 958.564 940.252C907.004 1052.68 928.388 1180.19 957.257 1299.81" stroke="black" stroke-opacity="0.5" stroke-miterlimit="10"/>
<path d="M1328.03 111.7C1333.85 264.642 1274.45 400.395 1230.73 532.991C1217.19 574.033 1210.89 640.681 1185 670.498C1170.98 686.634 1152.68 687.862 1135.69 692.071C1112.65 697.508 1090.79 706.103 1070 722.239C1037.45 747.495 1015.7 793.272 990.281 831.508C967.471 865.884 943.473 899.209 923.99 937.97C868.985 1046.89 886.805 1172.12 914.367 1292.61" stroke="black" stroke-opacity="0.5" stroke-miterlimit="10"/>
<path d="M1300.59 129.766C1306.89 279.025 1246.42 406.359 1200.8 532.817C1186.07 573.683 1179.65 637.701 1154.71 668.745C1140.92 685.934 1122.63 689.091 1105.52 694.353C1082.59 701.368 1060.61 710.664 1039.82 726.975C1007.51 752.407 985.533 796.957 959.396 834.14C935.993 867.639 911.163 899.736 890.373 936.919C832.042 1041.63 846.179 1164.23 872.672 1285.6" stroke="black" stroke-opacity="0.5" stroke-miterlimit="10"/>
<path d="M1272.67 148.884C1279.56 294.459 1218.14 412.848 1170.86 532.641C1154.82 573.331 1148.53 634.543 1124.76 667.166C1096.13 706.454 1044.57 705.577 1010.36 732.938C978.402 758.545 956.067 802.042 929.456 837.822C905.339 870.27 879.678 900.788 857.7 936.568C796.042 1036.89 806.616 1156.33 831.802 1278.23" stroke="black" stroke-opacity="0.5" stroke-miterlimit="10"/>
<path d="M1243.69 168.528C1251.41 310.42 1189.27 419.338 1140.45 532.466C1127.97 561.406 1119.54 589.469 1111.82 621.565C1107.9 637.877 1102.91 653.487 1094.59 665.94C1067.03 708.209 1015.23 712.068 981.135 740.306C949.652 766.264 926.961 808.533 899.875 843.085C875.164 874.48 848.671 903.42 825.505 937.446C760.64 1032.86 767.53 1148.97 791.647 1271.39" stroke="black" stroke-opacity="0.5" stroke-miterlimit="10"/>
<path d="M1213.63 188.521C1222.42 326.905 1160.05 426.002 1109.92 532.464C1096.85 560.352 1088.29 586.66 1081.17 618.582C1077.48 635.419 1072.61 651.555 1064.77 665.236C1038.28 710.662 986.837 719.783 952.623 749.073C921.734 775.557 898.687 816.423 871.006 849.397C845.583 879.74 818.377 906.926 794.142 939.198C726.307 1029.35 729.514 1141.78 752.562 1264.9" stroke="black" stroke-opacity="0.5" stroke-miterlimit="10"/>
<path d="M1181.91 208.517C1192.25 345.323 1128.45 434.071 1077.01 535.448C1063.23 562.458 1056.22 586.136 1049.68 617.882C1046.48 633.667 1042.32 649.277 1035.55 662.607C1010.6 712.769 958.921 727.151 924.231 758.371C893.699 785.732 869.82 825.897 841.427 857.643C815.053 887.109 786.778 912.891 761.236 943.76C691.856 1027.77 692.331 1137.04 713.953 1258.41" stroke="black" stroke-opacity="0.5" stroke-miterlimit="10"/>
<path d="M1148.53 228.161C1160.76 361.81 1097.56 439.859 1045.53 534.746C1031.15 560.879 1024.62 582.628 1018.8 614.725C1015.83 631.212 1011.91 647.523 1005.61 661.73C981.968 715.4 931.358 735.219 896.312 768.192C866.493 796.255 842.376 834.841 813.389 865.184C786.421 893.422 757.434 917.451 730.822 946.39C658.829 1024.97 655.621 1130.2 676.174 1252.45" stroke="black" stroke-opacity="0.5" stroke-miterlimit="10"/>
<path d="M1113 247.103C1127.62 377.945 1065.84 444.945 1013.33 534.044C998.481 559.3 992.659 579.646 987.67 611.742C984.937 628.931 981.373 645.768 975.433 661.203C953.099 718.556 903.915 743.461 868.393 778.715C839.287 807.655 814.814 844.662 785.47 873.427C757.789 900.437 728.208 922.536 700.527 949.722C675.817 973.926 653.007 1002.87 640.058 1043.03C619.505 1107.22 628.296 1180.54 638.87 1246.84" stroke="black" stroke-opacity="0.5" stroke-miterlimit="10"/>
<path d="M1074.99 265.168C1092.57 393.379 1032.81 449.329 980.42 532.99C956.303 571.577 959.986 615.951 944.898 660.325C924.108 721.185 876.35 751.528 840.353 789.062C811.96 818.703 787.368 854.307 757.549 881.493C729.274 907.276 698.98 927.621 670.468 952.877C645.044 975.327 620.928 1002.16 606.79 1041.45C584.456 1103.36 592.297 1175.98 602.157 1241.4" stroke="black" stroke-opacity="0.5" stroke-miterlimit="10"/>
<path d="M1034.36 281.656C1044.1 339.886 1041.84 388.294 1015.59 436.176C995.63 472.482 968.781 498.089 946.803 531.589C922.33 568.948 927.676 614.549 914.132 659.45C894.768 723.818 848.673 759.248 812.201 799.588C784.52 830.106 759.81 864.307 729.753 889.914C700.884 914.469 669.996 933.236 640.652 956.388C614.635 977.084 589.33 1001.99 573.767 1040.23C549.65 1099.86 556.66 1171.77 565.807 1236.49" stroke="black" stroke-opacity="0.5" stroke-miterlimit="10"/>
<path d="M990.756 296.738C1001.92 351.636 1003.59 399.167 977.45 445.119C958.68 478.268 932.781 499.491 912.347 529.834C888.231 565.613 894.884 614.022 883.122 658.396C865.183 726.097 820.871 766.437 783.805 809.583C756.837 840.978 732.126 873.601 701.713 897.805C672.25 921.308 640.768 938.321 610.711 959.719C584.1 978.836 557.607 1001.81 540.975 1039C515.314 1096.52 521.373 1167.73 529.927 1231.75" stroke="black" stroke-opacity="0.5" stroke-miterlimit="10"/>
<path d="M943.831 309.543C956.067 359.705 962.839 407.236 938.009 451.435C921.14 481.427 896.666 498.265 878.252 525.626C854.136 561.23 862.095 614.55 851.047 659.625C834.177 729.08 792.121 773.63 755.056 818.881C729.157 850.452 704.803 881.671 674.627 904.297C645.046 926.396 613.563 942.006 583.15 961.299C554.757 979.364 525.769 1001.29 507.474 1039.52C480.981 1094.95 486.327 1164.75 494.406 1227.54" stroke="black" stroke-opacity="0.5" stroke-miterlimit="10"/>
<path d="M893.341 320.241C906.409 365.141 918.883 413.9 896.073 456.871C881.579 484.232 858.651 496.86 842.85 521.59C820.04 557.194 829.188 610.689 819.922 655.589C804.596 729.428 763.966 779.239 725.831 827.998C701.002 859.744 677.123 889.56 647.185 910.958C616.059 933.057 582.795 947.439 550.718 966.031C522.206 982.693 492.862 1003.04 474.092 1040.22C447.005 1093.72 451.638 1162.29 459.123 1224.21" stroke="black" stroke-opacity="0.5" stroke-miterlimit="10"/>
<path d="M831.682 329.011C845.82 368.65 864.947 417.76 846.414 461.608C835.841 486.513 815.525 496.511 803.527 518.961C785.35 552.812 795.329 612.094 787.726 653.663C773.708 730.134 734.503 784.505 695.893 835.895C671.657 868.168 647.897 896.756 617.84 916.927C586.239 938.149 552.619 951.304 520.186 968.843C491.198 984.453 461.142 1003.57 441.421 1040.05C413.265 1091.97 417.066 1159.85 424.076 1221.41" stroke="black" stroke-opacity="0.5" stroke-miterlimit="10"/>
<path d="M746.146 334.974C762.185 368.298 789.034 415.304 781.43 460.555C777.866 481.953 764.561 494.581 759.809 514.751C754.7 535.974 761.709 563.335 761.353 585.961C760.997 607.358 759.452 628.581 756.007 649.277C742.82 728.73 703.972 787.311 665.124 842.034C613.921 913.945 553.689 936.219 488.823 970.421C459.717 985.855 429.542 1004.97 409.346 1040.93C380.952 1091.44 383.091 1157.74 389.149 1218.95" stroke="black" stroke-opacity="0.5" stroke-miterlimit="10"/>
<path d="M674.987 332.693C693.995 365.316 722.745 406.884 725.359 453.187C726.428 471.779 719.418 487.739 719.775 505.805C720.25 530.36 729.517 549.653 729.398 575.786C729.398 597.885 727.853 620.16 724.527 641.733C711.934 724.518 672.848 788.01 633.406 846.415C583.985 919.378 520.545 937.97 456.749 971.47C427.405 986.904 397.349 1006.2 376.796 1041.98C348.403 1091.61 348.878 1156.33 354.105 1217.37" stroke="black" stroke-opacity="0.5" stroke-miterlimit="10"/>
<path d="M616.178 323.221C638.156 356.897 666.431 394.255 676.886 440.208C680.806 457.396 679.024 475.812 682.707 493.001C684.964 503.699 690.31 511.592 693.28 521.414C697.557 535.095 697.795 547.021 697.913 562.807C698.151 585.958 696.607 608.935 693.399 631.56C680.806 718.028 641.364 786.431 601.091 848.87C553.451 922.535 487.041 938.32 424.314 971.82C394.971 987.43 364.914 1007.25 344.124 1043.03C315.73 1091.96 314.899 1155.46 319.294 1216.49" stroke="black" stroke-opacity="0.5" stroke-miterlimit="10"/>
<path d="M567.709 307.79C591.707 341.991 619.387 377.771 634.475 422.847C640.296 440.211 642.078 459.679 647.9 477.043C657.523 505.807 665.957 513.173 666.433 547.375C666.789 571.404 665.245 595.432 661.918 618.935C648.969 709.437 608.814 782.575 567.471 849.049C521.258 923.239 452.591 937.095 390.933 970.946C361.47 987.082 331.651 1007.78 310.861 1043.56C282.586 1092.32 280.567 1154.93 284.131 1215.97" stroke="black" stroke-opacity="0.5" stroke-miterlimit="10"/>
<path d="M527.909 287.268C552.976 321.82 580.182 357.249 597.408 401.799C604.417 420.039 608.1 440.56 615.109 458.801C626.277 487.565 634.355 495.107 634.949 530.361C635.305 555.266 633.761 580.172 630.316 604.551C616.772 698.912 575.43 776.786 532.899 847.118C487.873 921.484 417.662 934.463 356.954 969.366C327.492 986.379 298.029 1007.95 277.358 1044.26C249.439 1093.19 246.232 1155.11 249.202 1216.49" stroke="black" stroke-opacity="0.5" stroke-miterlimit="10"/>
<path d="M494.642 262.538C519.828 297.441 546.44 333.045 564.022 377.77C571.744 397.239 575.902 419.163 583.506 438.631C594.673 467.747 602.633 476.692 603.227 511.945C603.702 537.728 601.92 563.511 598.237 588.592C583.862 686.811 540.975 768.719 497.018 842.735C452.824 917.101 381.781 929.905 322.024 966.562C245.16 1013.92 209.282 1093.37 213.796 1217.9" stroke="black" stroke-opacity="0.5" stroke-miterlimit="10"/>
<path d="M466.132 235.001C490.842 270.43 516.622 306.561 533.136 351.812C540.858 373.035 544.897 396.187 552.263 417.584C562.242 446.875 570.083 458.626 570.677 493.003C571.033 519.487 569.132 545.971 565.093 571.754C549.649 673.306 504.98 758.897 459.479 835.894C415.76 909.735 344.598 923.415 285.91 962.703C209.996 1013.57 174.713 1096.18 178.039 1220.18" stroke="black" stroke-opacity="0.5" stroke-miterlimit="10"/>
<path d="M440.353 205.36C464.47 241.666 489.18 279.2 504.03 325.854C511.515 349.181 514.723 374.262 521.494 397.764C528.504 422.495 536.344 440.209 537.057 467.921C537.77 498.615 535.394 528.782 530.404 558.599C512.941 661.203 467.083 748.197 420.632 826.246C397.585 865.008 373.468 881.495 341.273 900.612C311.216 918.502 280.447 934.463 251.34 955.685C175.427 1011.11 140.024 1097.4 142.281 1223.33" stroke="black" stroke-opacity="0.5" stroke-miterlimit="10"/>
<path d="M415.406 175.017C438.453 212.375 461.619 251.137 474.569 298.668C481.459 324.1 483.954 350.935 489.538 377.068C494.884 402.149 502.012 422.319 502.606 449.33C503.319 480.374 500.467 510.892 495.002 540.884C475.994 645.593 428.117 734.341 379.884 813.618C336.759 884.477 268.33 903.243 212.85 948.67C138.243 1009.71 104.266 1101.44 105.81 1227.54" stroke="black" stroke-opacity="0.5" stroke-miterlimit="10"/>
<path d="M389.386 144.499C411.483 183.436 432.629 223.25 443.916 272.009C450.331 299.897 451.994 328.661 456.271 357.25C465.181 416.181 469.933 463.186 458.172 523.17C437.5 629.107 387.485 718.732 337.351 797.834C293.632 866.939 226.985 889.915 173.287 939.902C100.343 1007.78 68.0289 1105.47 68.9793 1232.46" stroke="black" stroke-opacity="0.5" stroke-miterlimit="10"/>
<path d="M360.4 115.209C381.547 155.724 401.03 197.117 410.772 246.753C416.712 277.095 417.9 308.14 421.108 339.184C427.166 398.466 432.156 446.875 419.682 505.806C397.229 611.918 344.956 701.017 292.921 778.716C248.133 845.715 183.862 874.129 132.421 929.202C61.3778 1005.15 31.0835 1109.86 31.9151 1238.42" stroke="black" stroke-opacity="0.5" stroke-miterlimit="10"/>
<path d="M326.422 88.199C363.369 164.319 376.675 232.897 383.328 323.925C387.604 382.857 392.475 431.966 379.051 489.67C354.578 594.554 300.048 682.074 246.112 756.44C199.542 820.634 138.597 855.887 89.7701 916.748C21.2218 1002.16 -6.934 1114.41 -6.2212 1245.43" stroke="black" stroke-opacity="0.5" stroke-miterlimit="10"/>
<path d="M285.556 64.1697C322.146 143.096 336.402 218.164 342.461 311.648C346.263 369.703 350.777 418.462 336.165 474.587C309.553 576.665 252.766 661.204 197.049 730.309C148.222 790.994 91.197 835.193 45.5774 902.017C-20.0008 997.957 -45.7806 1118.63 -44.8302 1253.5" stroke="black" stroke-opacity="0.5" stroke-miterlimit="10"/>
<path d="M241.123 51.7178C279.258 132.573 288.881 206.238 292.801 302.001C295.177 360.582 301.949 409.867 288.168 467.045C264.408 565.439 210.353 647.873 154.517 709.085C101.532 766.964 46.1703 819.231 1.85753 892.544C-61.1071 996.902 -84.3921 1125.11 -84.1545 1262.97" stroke="black" stroke-opacity="0.5" stroke-miterlimit="10"/>
<path d="M196.928 69.782C216.53 113.454 230.667 157.127 231.024 210.446C231.261 247.629 224.727 283.409 222.351 320.066C218.787 372.858 227.816 423.02 220.331 476.164C206.55 573.155 162.832 654.362 108.777 710.662C53.1783 768.542 -3.48986 822.036 -46.9711 901.313C-105.54 1007.95 -123.954 1138.44 -124.311 1273.32" stroke="black" stroke-opacity="0.5" stroke-miterlimit="10"/>
<path d="M150.239 108.719C168.178 154.848 176.375 197.643 165.683 249.734C158.674 284.111 145.606 314.805 136.933 348.129C123.509 399.694 136.577 453.54 135.626 507.385C133.963 599.641 105.807 676.112 55.0792 729.782C0.668301 787.31 -55.0494 835.017 -96.6298 914.995C-152.11 1021.63 -165.297 1153.88 -165.297 1285.07" stroke="black" stroke-opacity="0.5" stroke-miterlimit="10"/>
<path d="M99.5126 156.777C132.302 262.538 73.4951 312.349 38.8052 392.854C18.3714 440.21 35.0036 487.39 42.2504 538.254C55.0809 626.651 47.9529 701.719 -3.48801 758.896C-56.3545 817.653 -113.141 858.87 -152.227 941.479C-201.292 1045.31 -207.945 1175.1 -207.232 1298.05" stroke="black" stroke-opacity="0.5" stroke-miterlimit="10"/>
<path d="M43.4393 202.378C69.1003 312.875 -14.0605 360.757 -58.6109 426.529C-75.7182 451.785 -79.2823 468.447 -72.3918 501.947C-67.0458 527.73 -58.7297 552.285 -51.2452 576.84C-27.0098 655.766 -10.6152 728.904 -62.7689 791.344C-112.19 850.451 -169.334 882.372 -205.805 964.455C-250.831 1065.83 -251.544 1195.62 -250.118 1312.43" stroke="black" stroke-opacity="0.5" stroke-miterlimit="10"/>
</svg>
