<svg width="1823" height="858" viewBox="0 0 1823 858" fill="none" xmlns="http://www.w3.org/2000/svg">
<g clip-path="url(#clip0_1950_1574)">
<path d="M-14.9979 -133.712C54.7384 -95.8276 120.079 -89.5135 189.578 -132.485C243.751 -166.16 288.658 -222.461 340.574 -261.924C381.323 -292.793 413.28 -292.793 455.692 -269.466C487.768 -251.751 517.469 -227.021 545.031 -197.029C587.918 -150.199 625.34 -94.0737 674.405 -60.223C754.239 -4.97452 847.498 -2.69442 933.867 -7.6054C1078.57 -15.6734 1218.75 -57.4167 1352.05 -141.254C1437.82 -195.275 1520.98 -267.01 1613.88 -291.039C1672.93 -306.298 1731.73 -291.039 1789.59 -317.523C1843.76 -342.429 1906.73 -395.924 1959.48 -336.641C1966.01 -177.034 1994.76 -26.0215 1968.86 134.111C1954.25 224.789 1919.08 301.085 1895.56 386.501C1872.51 470.514 1858.26 558.736 1842.22 645.906C1832.6 698.173 1812.76 759.911 1842.58 804.811C1858.61 829.015 1878.1 848.133 1894.49 871.811C1931.44 925.13 1960.07 988.271 1986.44 1053.52C1750.74 1043.34 1515.52 1021.07 1280.88 985.64C1040.31 949.51 800.097 894.436 558.336 879.002C290.44 861.813 28.8397 918.29 -229.434 1022.47C-229.553 913.905 -239.532 782.887 -207.574 680.984C-177.399 584.869 -110.752 562.244 -60.2611 497.875C7.33671 411.582 -77.3685 332.48 -117.523 267.409C-144.848 223.211 -176.33 161.473 -144.253 108.153C-119.305 66.7609 -80.9325 41.8552 -50.9946 9.05685C-35.0753 -8.48236 -17.1363 -28.3017 -9.29543 -56.0136C-0.385349 -88.1104 -4.30579 -101.44 -14.9979 -133.712Z" stroke="white" stroke-miterlimit="10"/>
<path d="M-229.674 986.34C-79.628 928.461 68.6358 879.351 223.315 858.655C334.75 843.747 446.661 839.362 558.453 844.273C797.599 854.621 1036.15 909.869 1273.64 947.754C1505.53 984.762 1738.39 1007.91 1971.59 1017.56" stroke="white" stroke-miterlimit="10"/>
<path d="M-229.674 952.313C-146.394 921.795 -63.7087 886.892 20.6401 862.863C87.5251 843.746 155.717 835.853 223.552 828.136C333.919 815.508 444.522 810.246 555.126 812.877C792.135 818.314 1029.97 872.159 1265.08 911.798C1495.08 950.559 1726.27 975.816 1957.69 985.462" stroke="white" stroke-miterlimit="10"/>
<path d="M-229.674 920.568C-144.969 891.102 -61.4515 853.217 24.0853 829.013C91.4455 809.896 160.35 805.686 228.661 799.547C337.245 789.725 445.948 784.288 554.77 784.99C787.739 786.568 1022.85 837.081 1253.68 877.772C1482.84 918.288 1713.2 946.877 1944.03 957.4" stroke="white" stroke-miterlimit="10"/>
<path d="M-229.434 890.575C-142.946 862.162 -58.4788 821.12 28.6024 796.565C94.6558 777.974 162.254 777.623 229.257 773.238C338.317 766.223 447.376 760.785 556.554 760.084C785.484 758.505 1017.38 804.283 1244.06 845.675C1472.15 887.418 1701.44 920.743 1931.2 932.319" stroke="white" stroke-miterlimit="10"/>
<path d="M-228.957 862.337C-142.945 835.853 -59.6655 793.408 26.4653 767.977C95.7264 747.456 166.888 751.139 237.218 748.508C346.516 744.474 455.694 739.739 564.991 737.985C790.594 734.301 1019.88 774.817 1243.11 817.086C1467.4 859.706 1692.77 897.416 1918.97 910.57" stroke="white" stroke-miterlimit="10"/>
<path d="M-228.246 835.853C-140.096 810.421 -55.3905 764.82 32.6411 739.037C100.952 718.867 170.807 726.409 240.187 726.058C350.196 725.532 460.206 721.498 570.216 718.692C794.156 713.079 1021.9 747.105 1243.58 790.602C1463.96 833.749 1685.16 876.719 1907.44 891.628" stroke="white" stroke-miterlimit="10"/>
<path d="M-227.176 810.947C-136.649 786.743 -50.3997 737.633 39.7703 711.325C109.269 691.154 180.193 703.081 250.523 704.835C359.345 707.641 468.286 704.835 577.108 701.327C797.127 694.312 1020.35 720.269 1238.12 763.942C1456.83 807.79 1675.78 857.426 1896.51 874.965" stroke="white" stroke-miterlimit="10"/>
<path d="M-225.75 787.445C-133.204 764.468 -45.7663 712.202 46.0669 685.542C116.635 665.021 188.153 681.158 259.434 685.367C368.374 691.856 477.434 690.278 586.374 686.244C803.187 678.351 1022.37 695.715 1237.17 739.563C1453.03 783.762 1668.42 840.413 1886.18 860.408" stroke="white" stroke-miterlimit="10"/>
<path d="M-223.85 765.521C-128.69 743.773 -39.4703 687.823 54.739 660.637C126.732 639.941 199.32 660.813 271.789 667.478C379.779 677.299 487.888 677.299 595.878 673.09C808.888 664.671 1023.21 672.389 1234.43 715.886C1448.39 760.084 1660.93 824.804 1876.79 847.956" stroke="white" stroke-miterlimit="10"/>
<path d="M-221.473 744.826C-123.581 724.305 -32.5789 664.321 64.244 636.96C135.762 616.79 206.924 641.169 278.561 650.29C387.739 664.145 497.155 665.899 606.69 661.339C818.393 652.394 1029.86 650.29 1240.02 694.839C1449.58 739.213 1656.77 810.773 1868 836.906" stroke="white" stroke-miterlimit="10"/>
<path d="M-218.504 725.357C-117.761 706.239 -24.9769 642.045 74.4596 614.509C147.522 594.339 219.753 623.805 292.578 635.205C402.469 652.394 512.717 655.901 623.083 650.99C829.559 641.695 1034.25 629.943 1239.54 673.441C1447.21 717.289 1650.83 797.793 1859.92 827.259" stroke="white" stroke-miterlimit="10"/>
<path d="M-214.822 706.941C-114.435 689.752 -22.2457 625.384 76.2405 595.742C152.511 572.766 224.979 605.389 300.656 619.946C411.854 641.344 523.764 646.957 635.675 641.52C840.963 631.873 1042.69 609.423 1247.26 653.797C1450.53 697.82 1648.34 785.516 1852.79 818.314" stroke="white" stroke-miterlimit="10"/>
<path d="M-210.426 689.577C-107.425 673.792 -13.2159 605.214 87.765 575.397C165.58 552.245 239.355 589.955 316.22 606.968C426.467 631.347 537.665 638.713 649.1 633.276C740.34 628.892 831.341 615.036 922.58 609.774C1031.88 603.46 1141.06 610.3 1249.28 633.627C1450.53 677.124 1644.53 773.765 1846.5 810.247" stroke="white" stroke-miterlimit="10"/>
<path d="M-205.318 673.09C-100.298 658.883 -4.78212 586.797 97.862 556.279C177.34 532.601 251.353 574.695 329.405 594.164C440.009 622.051 551.92 631.171 663.949 625.208C754.119 620.472 843.814 603.109 933.865 595.391C1041.26 586.271 1148.78 591.182 1255.22 614.334C1453.38 657.48 1642.39 762.364 1840.91 802.178" stroke="white" stroke-miterlimit="10"/>
<path d="M-199.375 657.305C-91.7412 644.501 5.43815 567.855 110.458 537.513C191.481 514.185 266.682 561.015 345.803 582.939C455.457 613.282 566.655 623.981 678.09 617.666C767.904 612.58 857.005 591.533 946.462 581.36C1050.89 569.609 1155.31 572.591 1259.03 594.866C1455.29 637.135 1640.02 750.964 1835.93 794.636" stroke="white" stroke-miterlimit="10"/>
<path d="M-192.604 642.396C-82.4749 631.171 16.13 549.439 123.526 519.622C203.955 497.347 277.374 546.282 355.307 570.31C466.386 604.512 579.366 617.315 692.583 610.475C782.041 605.038 870.666 580.132 959.767 567.679C1063.48 553.122 1167.43 554.35 1270.55 577.151C1462.53 619.771 1640.74 740.09 1832 786.919" stroke="white" stroke-miterlimit="10"/>
<path d="M-184.766 627.838C-75.9438 618.718 21.8295 538.038 127.206 504.889C172.232 490.682 209.416 493.664 253.135 513.308C292.577 531.198 332.376 546.807 372.53 560.137C484.322 596.794 598.134 610.825 712.42 602.407C798.432 596.093 883.613 568.731 969.031 553.999C1071.44 536.284 1174.32 535.056 1276.49 557.331C1466.81 598.899 1640.38 727.636 1829.15 778.149" stroke="white" stroke-miterlimit="10"/>
<path d="M-175.973 613.983C-65.844 606.616 32.7609 522.428 139.207 488.753C184.945 474.195 222.011 477.879 266.324 499.276C306.122 518.394 346.396 535.407 387.145 549.614C499.174 588.902 613.579 604.161 728.46 594.339C813.878 586.972 898.108 556.805 982.695 539.617C1083.68 519.096 1185.25 515.939 1286.23 538.038C1473.94 579.08 1641.92 715.008 1827.25 768.678" stroke="white" stroke-miterlimit="10"/>
<path d="M-166.111 600.478C-54.2007 594.865 45.5922 506.117 153.582 472.442C201.103 457.709 236.506 463.847 282.006 486.824C319.904 505.941 358.158 523.13 397.006 537.687C510.342 580.132 626.411 597.145 743.192 585.745C828.729 577.326 912.721 544.177 997.308 524.533C1098.05 501.206 1199.27 496.47 1300.25 519.271C1484.04 560.488 1645.49 702.029 1826.3 758.33" stroke="white" stroke-miterlimit="10"/>
<path d="M-155.066 587.323C-41.7302 583.639 59.0132 490.156 168.429 456.481C217.494 441.397 251.946 450.693 297.922 474.897C336.295 495.067 375.143 513.132 414.466 528.391C526.614 571.888 641.851 589.427 757.564 576.098C843.457 566.276 927.33 530.496 1012.04 508.397C1110.4 482.789 1209.48 476.3 1308.44 498.224C1490.92 538.564 1647.62 686.945 1826.18 746.228" stroke="white" stroke-miterlimit="10"/>
<path d="M-142.826 574.345C-28.3019 572.766 73.1543 474.196 183.639 441.047C228.309 427.542 262.998 435.084 304.816 458.411C346.516 481.563 389.046 502.259 432.052 519.447C543.013 563.646 657.181 581.185 771.824 565.575C858.192 553.824 942.184 515.764 1027.13 491.384C1125.49 463.146 1224.81 454.903 1324.13 478.055C1402.54 496.295 1477.15 530.672 1549.85 576.976C1641.21 635.206 1729.95 698.347 1827.25 732.548" stroke="white" stroke-miterlimit="10"/>
<path d="M-129.402 561.365C-14.7593 561.891 86.6968 459.638 196.944 426.138C284.025 399.654 363.86 475.248 446.308 508.923C557.268 554.349 671.792 571.889 786.435 553.297C872.804 539.266 956.321 499.803 1041.14 473.143C1138.8 442.449 1237.4 432.803 1336.48 455.779C1414.06 473.845 1487.84 508.923 1559.24 556.805C1647.98 616.438 1733.87 681.508 1829.15 716.587" stroke="white" stroke-miterlimit="10"/>
<path d="M-114.553 548.387C0.565527 551.194 102.022 443.854 212.626 410.88C296.618 385.799 376.096 462.27 455.336 496.121C569.029 544.529 686.761 562.243 804.374 538.741C889.792 521.552 972.121 481.388 1055.88 453.15C1151.87 420.877 1248.93 409.302 1346.58 431.752C1423.92 449.466 1497.34 484.72 1567.91 534.181C1654.75 595.041 1738.39 662.392 1832.12 698.523" stroke="white" stroke-miterlimit="10"/>
<path d="M-94.002 531.549C19.6907 538.214 120.434 427.191 229.731 395.795C275.707 382.641 306.477 397.725 349.007 422.455C389.162 445.782 429.911 466.654 471.491 484.018C583.877 531.023 700.421 548.562 816.252 523.13C902.739 504.188 985.9 463.497 1070.84 433.856C1167.55 400.005 1265.44 387.552 1364.04 410.178C1438.77 427.366 1509.22 461.567 1577.17 510.326C1662.35 571.538 1744.09 639.941 1835.92 678.001" stroke="white" stroke-miterlimit="10"/>
<path d="M-69.7656 508.572C37.393 520.323 137.424 414.562 239.83 382.641C284.737 368.609 316.219 381.062 357.918 404.214C398.667 426.84 440.01 447.185 481.947 464.373C594.095 510.151 710.282 530.145 826.113 506.818C913.076 489.454 996.831 449.64 1082.13 420.525C1177.76 387.727 1274.71 373.345 1372.48 392.638C1450.18 407.897 1521.34 442.274 1591.67 492.787C1673.52 551.543 1752.88 615.912 1839.96 656.603" stroke="white" stroke-miterlimit="10"/>
<path d="M-52.1836 486.649C-3.59394 494.366 42.8573 470.688 88.2393 447.536C143.482 419.298 197.893 384.22 255.392 366.505C299.468 353 330.237 365.277 371.461 387.026C411.972 408.424 452.959 428.068 494.539 444.73C606.331 489.63 722.162 512.08 837.755 491.033C925.193 475.073 1009.9 436.662 1095.79 408.599C1191.31 377.379 1288.13 362.822 1385.79 380.361C1462.53 394.217 1531.67 426.84 1601.41 475.423C1681.72 531.198 1759.89 592.234 1844 635.03" stroke="white" stroke-miterlimit="10"/>
<path d="M-40.4219 465.777C8.16778 475.423 55.4506 451.745 101.07 428.944C157.501 400.882 213.337 366.154 271.906 348.79C316.1 335.811 346.395 348.79 388.094 369.837C428.486 390.183 469.235 408.95 510.459 425.261C622.013 469.285 737.607 494.19 852.962 474.546C939.687 459.813 1024.15 423.858 1109.57 397.9C1206.04 368.434 1303.57 354.754 1401.94 371.767C1475.72 384.57 1541.41 414.913 1609.13 459.287C1688.61 511.378 1766.31 568.556 1848.04 613.106" stroke="white" stroke-miterlimit="10"/>
<path d="M-34.125 445.783C14.7022 457.008 63.0543 433.33 109.268 411.231C167.48 383.519 224.98 348.967 285.094 331.252C365.284 307.749 446.307 373.521 523.171 403.864C633.894 447.537 748.774 476.301 863.536 459.463C950.617 446.66 1035.92 413.16 1121.81 389.307C1218.28 362.296 1315.57 349.493 1413.59 365.629C1569.57 391.411 1707.38 508.924 1851.96 591.358" stroke="white" stroke-miterlimit="10"/>
<path d="M-32.5801 426.314C17.1976 438.943 67.094 415.089 114.377 393.516C174.965 365.804 234.722 331.252 297.093 313.011C341.762 299.857 373.363 309.679 416.013 329.674C455.692 348.09 495.491 365.804 535.646 381.765C645.418 425.437 759.229 458.236 873.397 444.555C960.835 434.207 1046.97 403.338 1133.33 381.765C1229.68 357.736 1326.86 346.16 1424.4 361.595C1575.39 385.624 1716.05 487 1855.88 569.259" stroke="white" stroke-miterlimit="10"/>
<path d="M-35.0742 407.198C15.6539 420.878 67.2135 397.201 115.684 375.978C178.768 348.442 241.02 314.065 305.647 294.596C328.576 287.756 353.405 280.565 376.809 285.301C393.917 288.808 410.668 299.332 427.062 306.698C466.148 324.238 505.471 341.426 544.913 357.387C653.259 401.235 765.408 438.768 878.506 429.823C967.37 422.808 1055.4 394.394 1143.31 375.277C1238.71 354.405 1334.82 344.408 1431.05 358.79C1578.48 380.889 1723.3 465.253 1859.92 546.985" stroke="white" stroke-miterlimit="10"/>
<path d="M-41.1348 388.256C11.0189 402.638 64.3606 379.135 114.495 358.264C180.548 330.727 245.651 296.526 312.892 275.479C359.581 260.921 393.083 263.377 437.871 282.67C478.976 300.56 520.082 318.275 561.306 335.288C667.514 378.785 777.167 419.826 888.246 414.214C978.416 409.654 1067.99 384.222 1157.45 367.91C1252.37 350.722 1347.89 343.005 1443.28 357.562C1509.46 367.735 1572.54 390.887 1636.69 415.968C1713.8 446.311 1790.18 479.46 1864.08 524.009" stroke="white" stroke-miterlimit="10"/>
<path d="M-50.043 369.489C3.89274 384.572 59.2541 361.07 111.17 340.374C184.589 311.083 257.058 273.199 331.784 251.976C377.879 238.822 412.331 243.558 457 262.149C494.541 277.934 532.082 294.07 569.624 309.68C676.069 354.405 785.723 401.235 897.396 398.779C987.21 396.85 1076.9 375.277 1166.24 362.122C1262.23 348.091 1358.7 342.478 1454.93 357.562C1519.32 367.559 1581.81 389.308 1645.13 408.776C1721.16 432.279 1796.6 457.886 1868.71 501.383" stroke="white" stroke-miterlimit="10"/>
<path d="M-61.2109 350.547C-5.37441 366.157 52.0065 342.83 106.061 322.309C183.044 292.843 258.958 255.309 337.01 231.982C382.986 218.302 421.597 219.003 466.622 237.244C503.57 252.152 540.398 267.762 577.226 283.547C684.029 329.325 793.326 381.767 905.593 382.819C995.169 383.696 1084.98 365.806 1174.08 355.984C1269.24 345.461 1364.64 341.953 1459.68 356.51C1524.55 366.508 1588.34 386.678 1652.85 401.235C1727.93 418.073 1802.54 435.963 1873.23 478.583" stroke="white" stroke-miterlimit="10"/>
<path d="M-74.043 331.252C-11.316 348.616 55.2127 320.728 115.801 297.576C190.765 268.987 264.897 234.083 340.692 211.282C387.856 197.075 428.842 193.567 475.175 211.633C514.023 226.717 552.633 243.028 591.125 260.042C694.363 305.293 799.264 360.543 907.848 366.506C998.731 371.417 1090.56 356.333 1181.33 349.668C1277.56 342.477 1373.91 341.249 1469.78 356.333C1533.57 366.331 1596.42 384.396 1660.22 393.341C1734.47 403.69 1808.36 414.038 1877.98 455.782" stroke="white" stroke-miterlimit="10"/>
<path d="M-87.8223 311.435C-23.5509 329.149 44.641 301.964 107.012 278.987C184.945 250.398 261.928 216.022 340.456 191.291C392.609 174.805 437.279 168.666 488.957 187.959C524.36 201.113 559.525 215.846 594.452 231.456C699.473 278.286 805.324 340.374 915.928 349.495C1005.98 356.861 1097.34 345.636 1187.51 342.128C1283.97 338.27 1380.56 339.147 1476.55 354.055C1539.04 363.877 1600.1 380.013 1662.95 383.521C1737.91 387.73 1813.23 390.01 1883.8 432.104" stroke="white" stroke-miterlimit="10"/>
<path d="M-102.078 291.086C-35.6683 309.502 34.4243 282.141 98.8145 259.515C179.837 231.102 259.909 196.199 341.288 170.241C393.798 153.404 442.506 143.231 495.254 161.823C532.439 174.977 569.267 190.411 605.858 206.898C709.215 254.078 812.69 320.025 921.631 331.776C1011.68 341.423 1103.16 333.881 1193.33 333.355C1288.96 332.828 1384.72 335.635 1479.88 350.192C1543.79 360.014 1605.45 374.747 1669.96 373.344C1744.09 371.765 1819.29 366.854 1889.38 408.597" stroke="white" stroke-miterlimit="10"/>
<path d="M-116.098 269.688C-48.6186 288.631 22.7809 261.971 88.4779 239.697C177.103 209.705 264.422 171.996 353.523 144.81C406.033 128.85 453.554 119.379 505.945 137.269C542.179 149.546 577.938 164.279 613.46 180.59C715.272 227.77 815.659 296.699 922.818 312.484C1015.25 326.164 1109.93 320.727 1202.71 323.182C1297.16 325.638 1391.61 330.549 1485.58 344.58C1550.92 354.402 1612.7 367.205 1678.51 361.067C1749.44 354.577 1829.03 339.494 1895.68 384.92" stroke="white" stroke-miterlimit="10"/>
<path d="M-129.285 247.413C-60.3805 267.408 12.0882 240.924 79.5672 218.825C170.806 189.009 260.858 151.125 352.453 123.062C405.676 106.751 455.691 94.1232 509.271 110.961C545.03 122.185 580.433 136.217 615.36 152.528C718.361 200.409 818.629 274.599 926.857 293.365C1019.4 309.326 1114.44 306.87 1207.35 311.781C1302.98 316.867 1398.5 323.532 1493.66 337.388C1556.62 346.508 1615.55 357.558 1678.87 348.087C1750.74 337.563 1834.26 313.36 1902.33 361.592" stroke="white" stroke-miterlimit="10"/>
<path d="M-141.045 223.913C-71.9027 244.96 1.0412 218.826 68.9954 197.779C167.6 167.261 264.542 125.342 363.385 96.7526C415.301 81.6688 464.128 70.7945 516.282 86.0537C551.209 96.2264 585.661 109.732 619.639 125.517C722.996 173.75 822.551 252.326 931.135 272.496C1023.32 289.685 1118.01 290.211 1210.79 297.402C1306.9 304.769 1402.89 313.012 1498.65 325.991C1563.16 334.761 1622.8 343.706 1687.42 331.078C1757.99 317.222 1842.81 287.405 1909.94 337.392" stroke="white" stroke-miterlimit="10"/>
<path d="M-150.668 198.833C-81.2881 221.283 -7.63145 195.501 60.6792 175.155C161.066 145.163 259.79 103.771 360.296 74.3049C412.568 59.0458 462.94 45.8914 515.806 59.5719C550.496 68.5169 584.592 81.3205 618.213 96.5796C721.807 143.935 820.056 225.668 928.165 249.346C1023.56 270.217 1122.4 271.971 1218.63 281.267C1314.39 290.563 1410.14 299.859 1505.78 311.61C1570.28 319.503 1629.69 326.518 1694.19 311.435C1764.17 295.123 1851.25 260.396 1917.78 313.364" stroke="white" stroke-miterlimit="10"/>
<path d="M-157.678 172.348C-89.4859 196.728 -16.0668 171.471 51.531 152.178C152.631 123.239 251.948 83.0741 352.811 52.7313C405.321 36.7707 457.593 21.687 511.172 33.2629C547.644 41.1555 583.641 53.6083 618.806 69.5689C723.47 116.749 821.362 201.99 930.54 226.544C1025.94 247.942 1124.54 251.625 1220.77 262.324C1317.12 273.023 1413.59 282.845 1510.05 293.018C1575.99 299.858 1637.29 305.12 1702.87 288.458C1772.13 270.743 1861.11 233.034 1926.57 289.51" stroke="white" stroke-miterlimit="10"/>
<path d="M-160.053 144.286C-86.0396 173.05 -4.42327 144.637 68.9958 122.538C162.374 94.2996 254.444 58.1689 347.703 29.0539C403.065 11.6901 457.476 -2.8674 513.906 9.7608C547.289 17.3026 580.197 28.7031 612.511 43.6114C719.194 92.7211 817.681 181.82 929.948 203.042C1124.07 239.524 1322.11 246.013 1517.3 265.131C1582.76 271.445 1641.8 275.128 1706.67 255.309C1780.21 232.859 1872.28 186.205 1944.03 241.102" stroke="white" stroke-miterlimit="10"/>
<path d="M-150.432 116.574C-75.7058 147.443 4.36616 122.362 78.7356 98.8593C168.193 70.6212 256.106 33.2627 345.325 3.44615C400.33 -14.97 453.672 -29.5275 509.627 -15.4962C544.436 -6.72657 578.532 6.954 611.677 24.3178C719.311 80.6185 816.609 170.068 932.797 184.45C1129.17 208.83 1326.62 203.568 1523.36 220.23C1552.46 222.686 1581.81 228.298 1610.79 229.175C1647.86 230.228 1685.28 214.793 1720.92 201.113C1795.41 172.173 1887.48 117.275 1963.4 165.157" stroke="white" stroke-miterlimit="10"/>
<path d="M-130.592 89.0367C-55.8659 121.66 22.3052 99.3848 96.7935 74.3038C181.618 45.715 264.541 6.77799 349.008 -23.9156C402.588 -43.3841 453.553 -57.4154 508.083 -41.4547C542.535 -31.4574 576.156 -16.023 608.826 3.09475C719.905 68.3405 816.491 158.667 939.331 169.191C1138.44 186.204 1337.2 155.861 1536.31 164.28C1565.18 165.508 1594.28 170.769 1623.03 170.945C1660.57 171.12 1698.47 153.405 1734.11 137.796C1807.65 105.524 1898.41 45.1888 1974.92 89.7383" stroke="white" stroke-miterlimit="10"/>
<path d="M-104.219 61.5007C-30.3245 95.5267 45.1142 76.2336 118.771 49.2233C198.13 20.1082 275.351 -20.5826 354.235 -52.5039C405.913 -73.3756 453.909 -86.7053 506.538 -68.8154C540.99 -57.2395 574.373 -40.0511 606.568 -18.8287C657.653 14.6711 705.292 58.3436 756.495 91.4927C817.44 130.956 882.187 151.477 948.596 155.335C1151.27 167.262 1350.03 103.946 1551.87 99.9115C1580.5 99.3853 1609.25 103.069 1637.88 102.718C1675.07 102.016 1712.13 84.3016 1747.3 67.8148C1818.1 34.315 1905.78 -28.2999 1980.38 15.7234" stroke="white" stroke-miterlimit="10"/>
<path d="M-75.1094 33.2615C70.4219 103.944 224.507 -21.8115 361.841 -83.7248C411.262 -106 455.694 -117.049 505.947 -97.23C538.498 -84.4264 569.862 -66.7118 600.156 -44.9632C652.904 -7.07862 701.375 42.5572 755.073 77.6356C818.631 119.203 886.942 137.62 956.203 140.426C1070.37 145.161 1185.37 122.536 1297.4 92.3685C1388.16 67.989 1478.45 37.8217 1570.76 29.5783C1597.73 27.1228 1624.58 28.1751 1651.55 27.8243C1687.9 27.2982 1723.42 11.1621 1757.75 -5.50009C1825 -38.2983 1909.23 -102.141 1980.15 -56.1883" stroke="white" stroke-miterlimit="10"/>
<path d="M-46.7168 3.97307C96.7949 76.7609 234.723 -50.0478 367.661 -116.346C412.212 -138.621 450.941 -149.144 496.561 -130.027C531.726 -115.294 565.465 -94.2466 597.66 -68.6393C648.151 -28.1237 694.483 23.0908 746.875 58.5201C814.354 104.122 888.01 121.31 961.786 123.415C1081.77 126.923 1202.36 93.5985 1318.07 49.0489C1406.34 15.0228 1493.66 -27.0714 1584.66 -42.3305C1613.41 -47.2415 1641.92 -47.5923 1670.79 -48.82C1706.19 -50.3985 1740.29 -65.3069 1773.67 -81.9691C1834.26 -112.312 1913.62 -173.173 1976.94 -124.239" stroke="white" stroke-miterlimit="10"/>
<path d="M-22.959 -27.0733C118.296 47.1174 240.186 -76.8845 368.134 -149.672C410.784 -173.876 446.068 -182.646 490.024 -162.826C525.189 -146.866 558.81 -124.065 590.411 -96.5284C640.07 -53.2067 685.096 1.16474 737.725 37.2954C808.886 86.4051 887.889 101.313 965.704 102.19C1091.16 103.769 1216.37 62.0256 1334.94 3.97101C1422.02 -38.6492 1507.44 -92.319 1598.56 -113.541C1661.28 -128.099 1721.4 -122.837 1782.46 -153.18C1839.13 -181.418 1913.26 -239.473 1971.36 -187.206" stroke="white" stroke-miterlimit="10"/>
<path d="M-7.27344 -60.0456C58.6612 -24.6164 119.012 -26.3703 185.303 -59.344C248.268 -90.5638 303.867 -145.812 364.455 -184.925C405.323 -211.234 438.112 -218.249 480.405 -197.553C515.451 -180.54 548.478 -156.511 579.604 -127.221C628.075 -81.4434 671.556 -24.9671 723.947 11.339C798.555 63.0797 882.547 74.831 963.926 74.3049C1095.32 73.2525 1225.17 26.7736 1347.3 -43.2079C1433.55 -92.6685 1517.66 -155.81 1609.37 -181.242C1670.08 -198.079 1730.19 -190.011 1789.59 -219.126C1843.17 -245.435 1912.32 -299.982 1965.89 -244.909" stroke="white" stroke-miterlimit="10"/>
<path d="M-3.35547 -95.3004C66.262 -57.4158 131.365 -56.7142 200.388 -98.8082C254.324 -131.606 301.488 -182.47 353.523 -220.53C395.46 -251.224 428.487 -254.731 472.324 -231.229C504.163 -214.041 534.101 -191.24 562.138 -163.177C610.371 -114.769 652.664 -54.9603 706.244 -18.6542C784.058 34.1387 872.803 41.3297 957.151 38.3481C1093.54 33.4371 1226.59 -12.8663 1352.17 -90.7402C1439.25 -144.761 1523.6 -215.619 1617.21 -241.928C1675.07 -258.064 1733.04 -247.014 1789.71 -273.849C1843.53 -299.106 1908.39 -352.425 1961.26 -294.896" stroke="white" stroke-miterlimit="10"/>
<path d="M1935.36 -356.283C1941.54 -198.43 1961.5 -43.3839 1937.38 113.767C1923.48 204.27 1891.05 282.319 1866.22 366.332C1841.39 450.695 1822.38 538.391 1801.59 625.035C1789.35 676.249 1763.22 742.898 1787.45 794.288C1800.04 820.948 1817.86 843.047 1832.36 867.427C1865.74 923.552 1893.18 985.816 1918.61 1050.19" stroke="white" stroke-miterlimit="10"/>
<path d="M1911.01 -364C1915.99 -205.095 1927.28 -45.6634 1902.33 111.137C1888.43 198.307 1858.97 276.181 1834.02 356.861C1808.96 437.717 1786.03 519.801 1762.39 601.533C1747.54 652.923 1716.29 722.554 1733.52 780.082C1742.31 809.373 1758.58 834.805 1771.41 860.237C1801.59 919.695 1828.2 981.959 1853.03 1046.68" stroke="white" stroke-miterlimit="10"/>
<path d="M1886.18 -362.245C1889.27 -204.568 1891.52 -44.6115 1866.46 109.908C1852.44 196.552 1825.23 276.355 1799.1 356.158C1774.86 429.997 1748.96 502.609 1724.13 576.098C1706.19 629.067 1671.39 699.048 1680.89 762.013C1685.88 795.162 1700.85 825.154 1712.97 853.217C1739.7 915.305 1765.36 977.92 1789.47 1042.29" stroke="white" stroke-miterlimit="10"/>
<path d="M1860.63 -353.478C1861.58 -194.748 1854.93 -32.3353 1827.96 121.834C1813.83 202.69 1790.3 281.265 1764.4 355.631C1741.12 422.631 1712.13 484.544 1686.59 549.614C1664.73 605.214 1626.95 676.072 1630.04 744.299C1631.7 779.904 1644.18 813.053 1655.23 843.922C1678.63 908.992 1704.05 972.659 1727.58 1037.73" stroke="white" stroke-miterlimit="10"/>
<path d="M1834.26 -340.673C1832.48 -107.402 1807.05 150.248 1729.6 357.21C1707.38 416.493 1675.54 466.304 1650 522.429C1623.74 580.309 1583.47 652.921 1580.86 725.708C1579.43 763.418 1589.29 799.899 1599.51 833.925C1619.82 901.802 1644.89 966.872 1668.06 1032.64" stroke="white" stroke-miterlimit="10"/>
<path d="M1806.7 -326.116C1803.49 -162.826 1779.61 4.49752 1747.89 160.596C1734.59 226.017 1719.38 298.279 1695.5 357.736C1674.24 410.705 1638.95 447.537 1613.65 495.945C1582.52 555.578 1539.16 632.224 1532.15 709.747C1528.7 747.983 1535.59 786.043 1544.39 821.647C1561.85 892.505 1586.8 959.856 1609.96 1027.03" stroke="white" stroke-miterlimit="10"/>
<path d="M1777.83 -312.437C1773.55 -147.568 1741.6 20.4566 1708.45 177.081C1695.98 236.188 1684.45 308.449 1660.93 361.242C1640.5 407.019 1602.24 429.645 1577.65 470.511C1541.66 530.32 1496.04 611.526 1484.51 692.031C1468.47 803.229 1521.82 927.406 1553.77 1021.07" stroke="white" stroke-miterlimit="10"/>
<path d="M1747.53 -302.437C1743.38 -137.745 1704.41 29.0522 1671.03 184.975C1661.76 228.121 1652.49 271.267 1642.87 314.063C1638.95 331.602 1634.56 350.369 1626.6 365.101C1617.21 382.465 1604.97 389.305 1591.67 397.724C1572.9 409.826 1556.5 425.436 1541.77 446.834C1501.62 505.414 1454.1 591.005 1438.06 672.562C1415.37 788.496 1465.26 915.303 1498.88 1014.75" stroke="white" stroke-miterlimit="10"/>
<path d="M1715.69 -298.579C1713.08 -131.781 1667.22 36.2444 1633.6 193.922C1624.93 234.613 1617.92 275.83 1609.72 316.696C1606.52 332.657 1602.6 351.95 1594.64 364.578C1584.89 380.012 1572.42 381.065 1559.23 385.625C1538.92 392.465 1521.69 405.97 1506.01 426.316C1478.92 461.57 1456.35 507.522 1434.61 549.792C1417.5 583.116 1401.23 618.37 1391.96 658.184C1364.16 776.749 1410.97 905.311 1446.02 1008.62" stroke="white" stroke-miterlimit="10"/>
<path d="M1682.79 -299.983C1682.79 -126.871 1631.23 45.3634 1597.13 209.004C1588.46 250.747 1585.73 324.938 1562.68 357.21C1551.51 372.82 1537.5 371.592 1523.24 374.574C1502.09 378.783 1483.92 390.71 1467.17 410.354C1438.77 443.327 1416.08 489.982 1394.1 532.076C1375.45 567.68 1357.39 605.214 1346.7 647.834C1316.88 767.1 1359.77 896.013 1394.46 1001.95" stroke="white" stroke-miterlimit="10"/>
<path d="M1651.55 -298.053C1653.45 -125.993 1600.7 44.1366 1566.01 205.848C1557.22 247.065 1554.13 320.554 1529.77 351.072C1517.78 366.156 1502.21 363.876 1487.48 365.981C1465.74 369.138 1446.61 379.486 1428.67 398.077C1398.86 429.122 1376.52 476.828 1354.19 518.747C1334.94 555.053 1316.05 592.937 1304.17 635.908C1271.03 755.701 1310.35 885.842 1344.21 994.935" stroke="white" stroke-miterlimit="10"/>
<path d="M1621.73 -292.967C1625.05 -124.941 1572.07 41.3301 1536.43 197.955C1526.8 240.225 1523.48 317.222 1496.39 346.687C1483.56 360.719 1467.17 357.562 1452.08 359.316C1430.22 361.947 1410.38 371.067 1391.73 388.606C1361.08 417.546 1339.34 465.252 1316.76 506.645C1297.04 542.776 1277.32 580.134 1264.14 622.579C1226.36 743.073 1262.12 874.617 1295.38 987.92" stroke="white" stroke-miterlimit="10"/>
<path d="M1593.1 -284.898C1597.37 -119.153 1543.08 42.9089 1506.13 195.851C1496.04 237.945 1492.23 313.363 1464.55 341.777C1451.13 355.633 1434.02 352.651 1418.46 354.405C1396.12 356.86 1375.57 365.279 1356.33 382.292C1324.84 410.004 1303.22 457.886 1280.17 498.928C1259.86 535.058 1239.31 572.242 1224.81 614.336C1183.71 733.953 1215.78 865.146 1248.1 980.729" stroke="white" stroke-miterlimit="10"/>
<path d="M1565.29 -274.199C1570.04 -111.261 1514.68 45.5395 1476.19 194.447C1465.38 236.365 1460.99 309.854 1433.19 337.917C1419.29 351.948 1401.7 349.493 1385.78 351.422C1363.21 354.053 1342.07 362.121 1322.23 378.608C1290.15 405.267 1268.65 452.974 1245 493.665C1224.1 529.62 1202.71 566.101 1186.91 607.669C1142.36 725.532 1170.75 856.023 1202 973.185" stroke="white" stroke-miterlimit="10"/>
<path d="M1538.09 -261.045C1543.32 -101.263 1486.53 49.3988 1446.26 193.396C1434.62 234.964 1429.51 306.523 1402.18 334.586C1388.05 349.144 1370.11 347.565 1353.71 350.021C1330.9 353.353 1309.4 361.246 1289.08 377.557C1256.65 403.515 1235.15 450.696 1210.91 490.86C1189.41 526.465 1167.08 562.07 1150.09 602.936C1101.97 718.344 1126.92 847.607 1156.98 966.172" stroke="white" stroke-miterlimit="10"/>
<path d="M1511 -245.962C1516.47 -89.6876 1458.49 54.1338 1416.44 192.518C1403.84 233.911 1398.14 303.015 1371.41 331.779C1357.27 347.038 1339.1 346.688 1322.35 349.845C1299.42 354.054 1277.68 362.298 1257.13 378.434C1224.57 404.041 1202.95 450.52 1178.12 489.808C1156.03 524.886 1132.86 559.438 1114.56 599.252C1063 711.678 1084.39 839.188 1113.26 958.806" stroke="white" stroke-miterlimit="10"/>
<path d="M1484.03 -229.3C1489.85 -76.3582 1430.45 59.395 1386.73 191.991C1373.19 233.033 1366.89 299.682 1341 329.498C1326.98 345.634 1308.68 346.862 1291.69 351.071C1268.65 356.509 1246.79 365.103 1226 381.239C1193.45 406.495 1171.7 452.272 1146.28 490.508C1123.47 524.885 1099.47 558.209 1079.99 596.971C1024.99 705.889 1042.81 831.119 1070.37 951.613" stroke="white" stroke-miterlimit="10"/>
<path d="M1456.59 -211.233C1462.89 -61.975 1402.42 65.3594 1356.8 191.817C1342.07 232.683 1335.65 296.701 1310.71 327.745C1296.92 344.934 1278.63 348.091 1261.52 353.353C1238.59 360.368 1216.61 369.664 1195.82 385.976C1163.51 411.407 1141.53 455.957 1115.4 493.14C1091.99 526.64 1067.16 558.736 1046.37 595.92C988.042 700.628 1002.18 823.227 1028.67 944.598" stroke="white" stroke-miterlimit="10"/>
<path d="M1428.67 -192.116C1435.56 -46.5411 1374.14 71.8483 1326.86 191.641C1310.82 232.332 1304.53 293.543 1280.76 326.166C1252.13 365.454 1200.57 364.577 1166.36 391.938C1134.4 417.545 1112.07 461.042 1085.46 496.822C1061.34 529.27 1035.68 559.788 1013.7 595.568C952.042 695.892 962.616 815.334 987.802 937.231" stroke="white" stroke-miterlimit="10"/>
<path d="M1399.69 -172.472C1407.41 -30.5796 1345.27 78.3387 1296.45 191.467C1283.97 220.406 1275.54 248.469 1267.82 280.566C1263.9 296.877 1258.91 312.487 1250.59 324.94C1223.03 367.209 1171.23 371.068 1137.13 399.306C1105.65 425.264 1082.96 467.533 1055.87 502.086C1031.16 533.481 1004.67 562.42 981.505 596.446C916.64 691.86 923.53 807.969 947.647 930.393" stroke="white" stroke-miterlimit="10"/>
<path d="M1369.63 -152.479C1378.42 -14.0945 1316.05 85.0018 1265.92 191.465C1252.85 219.352 1244.29 245.661 1237.17 277.582C1233.48 294.42 1228.61 310.556 1220.77 324.236C1194.28 369.663 1142.84 378.783 1108.62 408.073C1077.73 434.557 1054.69 475.424 1027.01 508.397C1001.58 538.74 974.377 565.926 950.142 598.198C882.307 688.349 885.514 800.775 908.562 923.9" stroke="white" stroke-miterlimit="10"/>
<path d="M1337.91 -132.483C1348.25 4.32266 1284.45 93.0711 1233.01 194.448C1219.23 221.458 1212.22 245.136 1205.68 276.882C1202.48 292.667 1198.32 308.277 1191.55 321.607C1166.6 371.769 1114.92 386.151 1080.23 417.371C1049.7 444.732 1025.82 484.897 997.427 516.643C971.053 546.109 942.778 571.891 917.236 602.76C847.856 686.773 848.331 796.042 869.953 917.414" stroke="white" stroke-miterlimit="10"/>
<path d="M1304.53 -112.839C1316.76 20.8099 1253.56 98.8592 1201.53 193.746C1187.15 219.879 1180.62 241.628 1174.8 273.725C1171.83 290.212 1167.91 306.523 1161.61 320.73C1137.97 374.4 1087.36 394.219 1052.31 427.192C1022.49 455.255 998.376 493.841 969.389 524.184C942.421 552.422 913.434 576.451 886.822 605.39C814.829 683.966 811.621 789.201 832.174 911.449" stroke="white" stroke-miterlimit="10"/>
<path d="M1269 -93.8972C1283.62 36.945 1221.84 103.945 1169.33 193.044C1154.48 218.3 1148.66 238.646 1143.67 270.742C1140.94 287.931 1137.37 304.768 1131.43 320.203C1109.1 377.556 1059.91 402.461 1024.39 437.715C995.287 466.655 970.814 503.662 941.47 532.427C913.789 559.437 884.208 581.536 856.527 608.722C831.817 632.926 809.007 661.866 796.058 702.031C775.505 766.224 784.296 839.538 794.87 905.836" stroke="white" stroke-miterlimit="10"/>
<path d="M1230.99 -75.8323C1248.57 52.3788 1188.81 108.329 1136.42 191.99C1112.3 230.577 1115.99 274.951 1100.9 319.325C1080.11 380.185 1032.35 410.528 996.353 448.062C967.96 477.703 943.368 513.307 913.549 540.493C885.274 566.276 854.98 586.621 826.468 611.877C801.044 634.327 776.928 661.162 762.79 700.45C740.456 762.363 748.297 834.975 758.157 900.396" stroke="white" stroke-miterlimit="10"/>
<path d="M1190.36 -59.344C1200.1 -1.11395 1197.84 47.2942 1171.59 95.1761C1151.63 131.482 1124.78 157.089 1102.8 190.589C1078.33 227.948 1083.68 273.549 1070.13 318.45C1050.77 382.818 1004.67 418.248 968.201 458.588C940.52 489.106 915.81 523.307 885.753 548.914C856.884 573.469 825.996 592.236 796.652 615.388C770.635 636.084 745.33 660.99 729.767 699.225C705.65 758.858 712.66 830.769 721.807 895.489" stroke="white" stroke-miterlimit="10"/>
<path d="M1146.76 -44.262C1157.92 10.6356 1159.59 58.1668 1133.45 104.119C1114.68 137.268 1088.78 158.491 1068.35 188.834C1044.23 224.613 1050.88 273.022 1039.12 317.396C1021.18 385.097 976.871 425.437 939.805 468.583C912.837 499.978 888.126 532.601 857.713 556.805C828.25 580.308 796.768 597.321 766.711 618.719C740.1 637.836 713.607 660.813 696.975 697.996C671.314 755.524 677.373 826.733 685.927 890.751" stroke="white" stroke-miterlimit="10"/>
<path d="M1099.83 -31.4568C1112.07 18.7053 1118.84 66.2364 1094.01 110.435C1077.14 140.427 1052.67 157.265 1034.25 184.626C1010.14 220.23 1018.1 273.55 1007.05 318.625C990.177 388.08 948.121 432.63 911.056 477.881C885.157 509.452 860.803 540.671 830.627 563.297C801.046 585.396 769.563 601.006 739.15 620.299C710.757 638.364 681.769 660.288 663.474 698.524C636.981 753.948 642.327 823.754 650.406 886.544" stroke="white" stroke-miterlimit="10"/>
<path d="M1049.34 -20.759C1062.41 24.1411 1074.88 72.8998 1052.07 115.871C1037.58 143.232 1014.65 155.86 998.85 180.59C976.04 216.194 985.188 269.689 975.922 314.589C960.596 388.428 919.966 438.239 881.831 486.998C857.002 518.744 833.123 548.56 803.185 569.958C772.059 592.057 738.795 606.439 706.718 625.031C678.206 641.693 648.862 662.038 630.092 699.221C603.005 752.715 607.638 821.293 615.123 883.206" stroke="white" stroke-miterlimit="10"/>
<path d="M987.682 -11.989C1001.82 27.6497 1020.95 76.7596 1002.41 120.608C991.841 145.513 971.525 155.511 959.527 177.961C941.35 211.812 951.329 271.094 943.726 312.663C929.708 389.134 890.503 443.505 851.893 494.895C827.657 527.168 803.897 555.756 773.84 575.927C742.239 597.149 708.619 610.304 676.186 627.843C647.198 643.453 617.142 662.571 597.421 699.052C569.265 750.968 573.066 818.845 580.076 880.408" stroke="white" stroke-miterlimit="10"/>
<path d="M902.146 -6.02612C918.185 27.2985 945.034 74.3036 937.43 119.555C933.866 140.953 920.561 153.581 915.809 173.751C910.7 194.974 917.709 222.335 917.353 244.961C916.997 266.358 915.452 287.581 912.007 308.277C898.82 387.73 859.972 446.311 821.124 501.034C769.921 572.945 709.689 595.219 644.823 629.421C615.717 644.855 585.542 663.973 565.346 699.929C536.952 750.442 539.091 816.74 545.149 877.952" stroke="white" stroke-miterlimit="10"/>
<path d="M830.987 -8.30688C849.995 24.316 878.745 65.8838 881.359 112.187C882.428 130.779 875.418 146.739 875.775 164.805C876.25 189.36 885.517 208.653 885.398 234.786C885.398 256.885 883.853 279.16 880.527 300.733C867.934 383.518 828.848 447.01 789.406 505.415C739.985 578.378 676.545 596.97 612.749 630.47C583.405 645.904 553.349 665.197 532.796 700.977C504.403 750.613 504.878 815.333 510.105 876.369" stroke="white" stroke-miterlimit="10"/>
<path d="M772.178 -17.7786C794.156 15.8966 822.431 53.255 832.886 99.2077C836.806 116.396 835.024 134.812 838.707 152.001C840.964 162.699 846.31 170.592 849.28 180.414C853.557 194.095 853.795 206.021 853.913 221.807C854.151 244.958 852.607 267.935 849.399 290.56C836.806 377.028 797.364 445.431 757.091 507.87C709.451 581.535 643.041 597.32 580.314 630.82C550.971 646.43 520.914 666.249 500.124 702.029C471.73 750.963 470.899 814.455 475.294 875.491" stroke="white" stroke-miterlimit="10"/>
<path d="M723.709 -33.2102C747.707 0.991183 775.387 36.7711 790.475 81.8468C796.296 99.2105 798.078 118.679 803.9 136.043C813.523 164.807 821.957 172.173 822.433 206.375C822.789 230.404 821.245 254.432 817.918 277.935C804.969 368.437 764.814 441.575 723.471 508.049C677.258 582.239 608.591 596.095 546.933 629.946C517.47 646.082 487.651 666.778 466.861 702.558C438.586 751.317 436.567 813.932 440.131 874.968" stroke="white" stroke-miterlimit="10"/>
<path d="M683.909 -53.7322C708.976 -19.18 736.182 16.2491 753.408 60.7986C760.417 79.0393 764.1 99.5601 771.109 117.801C782.277 146.565 790.355 154.107 790.949 189.361C791.305 214.266 789.761 239.172 786.316 263.551C772.772 357.912 731.43 435.786 688.899 506.118C643.873 580.484 573.662 593.463 512.954 628.366C483.492 645.379 454.029 666.952 433.358 703.258C405.439 752.193 402.232 814.106 405.202 875.493" stroke="white" stroke-miterlimit="10"/>
<path d="M650.642 -78.4622C675.828 -43.5591 702.44 -7.95455 720.022 36.7704C727.744 56.2389 731.902 78.1629 739.506 97.6315C750.673 126.747 758.633 135.692 759.227 170.945C759.702 196.728 757.92 222.511 754.237 247.592C739.862 345.811 696.975 427.719 653.018 501.735C608.824 576.101 537.781 588.905 478.024 625.562C401.16 672.918 365.282 752.37 369.796 876.898" stroke="white" stroke-miterlimit="10"/>
<path d="M622.132 -105.999C646.842 -70.5696 672.622 -34.4388 689.136 10.8123C696.858 32.0348 700.897 55.1865 708.263 76.5844C718.242 105.875 726.083 117.626 726.677 152.003C727.033 178.487 725.132 204.971 721.093 230.754C705.649 332.306 660.98 417.897 615.479 494.894C571.76 568.735 500.598 582.415 441.91 621.703C365.996 672.567 330.713 755.176 334.039 879.179" stroke="white" stroke-miterlimit="10"/>
<path d="M596.353 -135.64C620.47 -99.3343 645.18 -61.8004 660.03 -15.1462C667.515 8.18086 670.723 33.2619 677.494 56.7644C684.504 81.4946 692.344 99.2092 693.057 126.921C693.77 157.615 691.394 187.782 686.404 217.599C668.941 320.203 623.083 407.197 576.632 485.246C553.585 524.008 529.468 540.495 497.273 559.612C467.216 577.502 436.447 593.463 407.34 614.685C331.427 670.109 296.024 756.402 298.281 882.333" stroke="white" stroke-miterlimit="10"/>
<path d="M571.406 -165.983C594.453 -128.625 617.619 -89.8634 630.569 -42.3322C637.459 -16.9004 639.954 9.93454 645.538 36.0679C650.884 61.1489 658.012 81.319 658.606 108.329C659.319 139.374 656.467 169.892 651.002 199.884C631.994 304.593 584.117 393.341 535.884 472.618C492.759 543.476 424.33 562.243 368.85 607.67C294.243 668.706 260.266 760.436 261.81 886.543" stroke="white" stroke-miterlimit="10"/>
<path d="M545.386 -196.501C567.483 -157.564 588.629 -117.75 599.916 -68.991C606.331 -41.1037 607.994 -12.3394 612.271 16.2494C621.181 75.1811 625.933 122.186 614.172 182.17C593.5 288.107 543.485 377.732 493.351 456.834C449.632 525.938 382.985 548.915 329.287 598.901C256.343 666.778 224.029 764.471 224.979 891.455" stroke="white" stroke-miterlimit="10"/>
<path d="M516.4 -225.791C537.547 -185.276 557.03 -143.883 566.772 -94.2472C572.712 -63.9044 573.9 -32.8601 577.108 -1.81578C583.166 57.4666 588.156 105.875 575.682 164.806C553.229 270.918 500.956 360.017 448.921 437.716C404.133 504.716 339.862 533.129 288.421 588.202C217.378 664.147 187.083 768.856 187.915 897.418" stroke="white" stroke-miterlimit="10"/>
<path d="M482.422 -252.801C519.369 -176.681 532.675 -108.103 539.328 -17.0747C543.604 41.8569 548.475 90.9665 535.051 148.67C510.578 253.554 456.048 341.075 402.112 415.441C355.542 479.634 294.597 514.888 245.77 575.749C177.222 661.164 149.066 773.415 149.779 904.432" stroke="white" stroke-miterlimit="10"/>
<path d="M441.556 -276.83C478.146 -197.904 492.402 -122.836 498.461 -29.3519C502.263 28.7028 506.777 77.4618 492.165 133.587C465.553 235.665 408.766 320.204 353.049 389.309C304.222 449.994 247.197 494.193 201.577 561.018C135.999 656.957 110.219 777.627 111.17 912.503" stroke="white" stroke-miterlimit="10"/>
<path d="M397.123 -289.282C435.258 -208.427 444.881 -134.762 448.801 -38.9986C451.177 19.5821 457.949 68.8671 444.168 126.045C420.408 224.439 366.353 306.873 310.517 368.085C257.532 425.964 202.17 478.231 157.858 551.544C94.8929 655.902 71.6079 784.113 71.8455 921.971" stroke="white" stroke-miterlimit="10"/>
<path d="M352.93 -271.218C372.532 -227.545 386.669 -183.873 387.025 -130.554C387.263 -93.3708 380.729 -57.591 378.353 -20.9341C374.789 31.8587 383.818 82.0206 376.333 135.164C362.552 232.156 318.834 313.362 264.779 369.663C209.18 427.542 152.512 481.036 109.031 560.313C50.462 666.951 32.0478 797.442 31.6914 932.318" stroke="white" stroke-miterlimit="10"/>
<path d="M306.239 -232.28C324.178 -186.152 332.375 -143.357 321.683 -91.2653C314.674 -56.8885 301.606 -26.195 292.933 7.12944C279.509 58.6946 292.577 112.54 291.626 166.385C289.963 258.641 261.807 335.112 211.079 388.782C156.668 446.31 100.951 494.017 59.3702 573.996C3.89005 680.634 -9.29688 812.879 -9.29688 944.072" stroke="white" stroke-miterlimit="10"/>
<path d="M255.514 -184.224C288.303 -78.4624 229.496 -28.6512 194.806 51.8536C174.372 99.2094 191.005 146.39 198.251 197.253C211.082 285.651 203.954 360.718 152.513 417.896C99.6465 476.652 42.8595 517.869 3.77396 600.479C-45.2909 704.311 -51.9438 834.101 -51.231 957.05" stroke="white" stroke-miterlimit="10"/>
<path d="M199.438 -138.622C225.099 -28.125 141.939 19.7569 97.3881 85.5289C80.2808 110.785 76.7167 127.447 83.6072 160.947C88.9533 186.73 97.2693 211.285 104.754 235.84C128.989 314.766 145.384 387.904 93.2301 450.344C43.8088 509.451 -13.3345 541.372 -49.8065 623.455C-94.8321 724.832 -95.5449 854.622 -94.1193 971.433" stroke="white" stroke-miterlimit="10"/>
<path d="M136.474 -107.226C147.761 -47.5932 128.277 -14.4442 96.2009 20.6342C67.8074 51.6785 35.8499 75.0056 8.16922 107.278C-0.978464 117.977 -12.7398 129.728 -17.1354 146.39C-21.6499 163.929 -16.0662 178.487 -10.9578 195.324C-3.47329 219.528 6.26842 241.978 16.2477 263.902C48.2052 333.884 91.0924 408.25 35.4935 478.932C-11.9082 539.443 -70.9523 564.348 -104.692 648.185C-144.609 747.106 -139.976 876.195 -138.313 986.867" stroke="white" stroke-miterlimit="10"/>
<path d="M65.4302 -101.789C72.7958 -67.2371 73.8651 -53.3812 60.7969 -24.0908C51.0552 -2.16679 36.0863 13.4431 21.5926 28.0006C-9.41453 59.2203 -44.3421 82.372 -74.0423 116.398C-98.8718 144.812 -107.069 164.28 -92.2189 207.952C-83.5464 233.384 -71.6663 256.361 -59.311 277.934C-23.0767 341.075 43.5708 419.3 -16.6614 496.823C-64.1818 557.859 -125.958 580.134 -157.56 667.479C-193.319 766.224 -184.765 896.014 -183.458 1003.7" stroke="white" stroke-miterlimit="10"/>
</g>
<defs>
<clipPath id="clip0_1950_1574">
<rect width="1823" height="858" fill="white"/>
</clipPath>
</defs>
</svg>
